<svg width="81" height="19" viewBox="0 0 81 19" fill="none" xmlns="http://www.w3.org/2000/svg">
<path d="M2.82955 18H0.613636L7.02273 0.545454H9.20455L15.6136 18H13.3977L8.18182 3.30682H8.04545L2.82955 18ZM3.64773 11.1818H12.5795V13.0568H3.64773V11.1818ZM19.0483 18H16.8324L23.2415 0.545454H25.4233L31.8324 18H29.6165L24.4006 3.30682H24.2642L19.0483 18ZM19.8665 11.1818H28.7983V13.0568H19.8665V11.1818ZM39.2216 18.2727C38.1307 18.2727 37.1676 17.9972 36.3324 17.446C35.4972 16.8892 34.8438 16.1051 34.3722 15.0938C33.9006 14.0767 33.6648 12.875 33.6648 11.4886C33.6648 10.1136 33.9006 8.92045 34.3722 7.90909C34.8438 6.89773 35.5 6.11648 36.3409 5.56534C37.1818 5.0142 38.1534 4.73864 39.2557 4.73864C40.108 4.73864 40.7813 4.88068 41.2756 5.16477C41.7756 5.44318 42.1563 5.76136 42.4176 6.11932C42.6847 6.47159 42.892 6.76136 43.0398 6.98864H43.2102V0.545454H45.2216V18H43.2784V15.9886H43.0398C42.892 16.2273 42.6818 16.5284 42.4091 16.892C42.1364 17.25 41.7472 17.571 41.2415 17.8551C40.7358 18.1335 40.0625 18.2727 39.2216 18.2727ZM39.4943 16.4659C40.3011 16.4659 40.983 16.2557 41.5398 15.8352C42.0966 15.4091 42.5199 14.821 42.8097 14.071C43.0994 13.3153 43.2443 12.4432 43.2443 11.4545C43.2443 10.4773 43.1023 9.62216 42.8182 8.8892C42.5341 8.15057 42.1136 7.5767 41.5568 7.16761C41 6.75284 40.3125 6.54545 39.4943 6.54545C38.642 6.54545 37.9318 6.7642 37.3636 7.2017C36.8011 7.63352 36.3778 8.22159 36.0938 8.96591C35.8153 9.70455 35.6761 10.5341 35.6761 11.4545C35.6761 12.3864 35.8182 13.233 36.1023 13.9943C36.392 14.75 36.8182 15.3523 37.3807 15.8011C37.9489 16.2443 38.6534 16.4659 39.4943 16.4659ZM49.1847 18V4.90909H51.196V18H49.1847ZM50.2074 2.72727C49.8153 2.72727 49.4773 2.59375 49.1932 2.3267C48.9148 2.05966 48.7756 1.73864 48.7756 1.36364C48.7756 0.988636 48.9148 0.667614 49.1932 0.400568C49.4773 0.133523 49.8153 0 50.2074 0C50.5994 0 50.9347 0.133523 51.2131 0.400568C51.4972 0.667614 51.6392 0.988636 51.6392 1.36364C51.6392 1.73864 51.4972 2.05966 51.2131 2.3267C50.9347 2.59375 50.5994 2.72727 50.2074 2.72727ZM62.6186 18H60.4027L66.8118 0.545454H68.9936L75.4027 18H73.1868L67.9709 3.30682H67.8345L62.6186 18ZM63.4368 11.1818H72.3686V13.0568H63.4368V11.1818ZM80.2351 0.545454V18H78.1214V0.545454H80.2351Z" fill="white"/>
</svg>
