<svg width="455" height="58" viewBox="0 0 455 58" fill="none" xmlns="http://www.w3.org/2000/svg">
<g filter="url(#filter0_i_1029_148)">
<rect width="454.156" height="57.0667" rx="24" fill="#1D1A28"/>
</g>
<path d="M199.83 35H197.614L204.023 17.5455H206.205L212.614 35H210.398L205.182 20.3068H205.045L199.83 35ZM200.648 28.1818H209.58V30.0568H200.648V28.1818ZM216.048 35H213.832L220.241 17.5455H222.423L228.832 35H226.616L221.401 20.3068H221.264L216.048 35ZM216.866 28.1818H225.798V30.0568H216.866V28.1818ZM236.222 35.2727C235.131 35.2727 234.168 34.9972 233.332 34.446C232.497 33.8892 231.844 33.1051 231.372 32.0938C230.901 31.0767 230.665 29.875 230.665 28.4886C230.665 27.1136 230.901 25.9205 231.372 24.9091C231.844 23.8977 232.5 23.1165 233.341 22.5653C234.182 22.0142 235.153 21.7386 236.256 21.7386C237.108 21.7386 237.781 21.8807 238.276 22.1648C238.776 22.4432 239.156 22.7614 239.418 23.1193C239.685 23.4716 239.892 23.7614 240.04 23.9886H240.21V17.5455H242.222V35H240.278V32.9886H240.04C239.892 33.2273 239.682 33.5284 239.409 33.892C239.136 34.25 238.747 34.571 238.241 34.8551C237.736 35.1335 237.063 35.2727 236.222 35.2727ZM236.494 33.4659C237.301 33.4659 237.983 33.2557 238.54 32.8352C239.097 32.4091 239.52 31.821 239.81 31.071C240.099 30.3153 240.244 29.4432 240.244 28.4545C240.244 27.4773 240.102 26.6222 239.818 25.8892C239.534 25.1506 239.114 24.5767 238.557 24.1676C238 23.7528 237.313 23.5455 236.494 23.5455C235.642 23.5455 234.932 23.7642 234.364 24.2017C233.801 24.6335 233.378 25.2216 233.094 25.9659C232.815 26.7045 232.676 27.5341 232.676 28.4545C232.676 29.3864 232.818 30.233 233.102 30.9943C233.392 31.75 233.818 32.3523 234.381 32.8011C234.949 33.2443 235.653 33.4659 236.494 33.4659ZM246.185 35V21.9091H248.196V35H246.185ZM247.207 19.7273C246.815 19.7273 246.477 19.5938 246.193 19.3267C245.915 19.0597 245.776 18.7386 245.776 18.3636C245.776 17.9886 245.915 17.6676 246.193 17.4006C246.477 17.1335 246.815 17 247.207 17C247.599 17 247.935 17.1335 248.213 17.4006C248.497 17.6676 248.639 17.9886 248.639 18.3636C248.639 18.7386 248.497 19.0597 248.213 19.3267C247.935 19.5938 247.599 19.7273 247.207 19.7273ZM259.619 35H257.403L263.812 17.5455H265.994L272.403 35H270.187L264.971 20.3068H264.835L259.619 35ZM260.437 28.1818H269.369V30.0568H260.437V28.1818ZM277.235 17.5455V35H275.121V17.5455H277.235Z" fill="white"/>
<path d="M300.11 17L318.878 28.8889L300.11 40.7778M298.667 19.9722L311.66 28.8889L298.667 37.8056" stroke="white" stroke-linecap="round" stroke-linejoin="round"/>
<defs>
<filter id="filter0_i_1029_148" x="0" y="0" width="458.156" height="61.0667" filterUnits="userSpaceOnUse" color-interpolation-filters="sRGB">
<feFlood flood-opacity="0" result="BackgroundImageFix"/>
<feBlend mode="normal" in="SourceGraphic" in2="BackgroundImageFix" result="shape"/>
<feColorMatrix in="SourceAlpha" type="matrix" values="0 0 0 0 0 0 0 0 0 0 0 0 0 0 0 0 0 0 127 0" result="hardAlpha"/>
<feOffset dx="8" dy="8"/>
<feGaussianBlur stdDeviation="2"/>
<feComposite in2="hardAlpha" operator="arithmetic" k2="-1" k3="1"/>
<feColorMatrix type="matrix" values="0 0 0 0 1 0 0 0 0 1 0 0 0 0 1 0 0 0 0.3 0"/>
<feBlend mode="overlay" in2="shape" result="effect1_innerShadow_1029_148"/>
</filter>
</defs>
</svg>
