<svg width="403" height="110" viewBox="0 0 403 110" fill="none" xmlns="http://www.w3.org/2000/svg">
<g filter="url(#filter0_ii_852_181)">
<rect x="1" y="28" width="382" height="54.0212" rx="24" fill="#2E2340"/>
</g>
<rect x="0.5" y="27.5" width="383" height="55.0212" rx="24.5" stroke="#C6C6C6" stroke-linejoin="round"/>
<path d="M90.416 54.144C90.88 54.448 91.272 54.808 91.592 55.224C91.928 55.624 92.192 56.12 92.384 56.712C92.592 57.368 92.696 58.032 92.696 58.704C92.712 59.36 92.592 59.976 92.336 60.552C92.096 61.112 91.704 61.608 91.16 62.04C90.632 62.456 89.936 62.752 89.072 62.928C88.608 63.04 88.064 63.128 87.44 63.192C86.816 63.256 86.256 63.288 85.76 63.288C85.136 63.304 84.488 63.304 83.816 63.288C83.16 63.288 82.52 63.224 81.896 63.096C81.624 63.016 81.424 62.88 81.296 62.688C81.184 62.48 81.104 62.248 81.056 61.992C80.992 61.848 80.96 61.704 80.96 61.56V47.928C80.96 47.48 81.048 47.136 81.224 46.896C81.416 46.64 81.664 46.456 81.968 46.344C82.272 46.216 82.616 46.144 83 46.128C83.384 46.096 83.784 46.08 84.2 46.08C84.52 46.08 84.84 46.08 85.16 46.08C85.496 46.064 85.832 46.064 86.168 46.08C86.696 46.096 87.24 46.144 87.8 46.224C88.376 46.288 88.92 46.416 89.432 46.608C89.672 46.688 89.928 46.8 90.2 46.944C90.472 47.072 90.688 47.232 90.848 47.424C91.36 47.888 91.736 48.432 91.976 49.056C92.232 49.664 92.344 50.288 92.312 50.928C92.28 51.552 92.104 52.152 91.784 52.728C91.48 53.304 91.024 53.776 90.416 54.144ZM86.216 60.504C86.712 60.472 87.216 60.416 87.728 60.336C88.24 60.256 88.592 60.104 88.784 59.88C88.992 59.624 89.136 59.328 89.216 58.992C89.312 58.64 89.336 58.288 89.288 57.936C89.256 57.568 89.152 57.224 88.976 56.904C88.816 56.568 88.6 56.304 88.328 56.112C87.96 55.824 87.536 55.64 87.056 55.56C86.576 55.464 86.104 55.416 85.64 55.416C85.416 55.416 85.208 55.424 85.016 55.44C84.84 55.44 84.68 55.464 84.536 55.512C84.408 55.544 84.312 55.616 84.248 55.728C84.184 55.84 84.152 56.008 84.152 56.232C84.184 56.648 84.184 57.064 84.152 57.48C84.12 57.896 84.104 58.296 84.104 58.68C84.104 58.904 84.096 59.152 84.08 59.424C84.08 59.68 84.168 59.896 84.344 60.072C84.52 60.248 84.776 60.368 85.112 60.432C85.448 60.496 85.816 60.52 86.216 60.504ZM86.696 48.984C86.2 48.968 85.784 48.96 85.448 48.96C85.128 48.944 84.872 48.968 84.68 49.032C84.504 49.08 84.376 49.2 84.296 49.392C84.232 49.568 84.208 49.84 84.224 50.208C84.224 50.512 84.216 50.816 84.2 51.12C84.2 51.408 84.2 51.696 84.2 51.984C84.2 52.304 84.304 52.544 84.512 52.704C84.72 52.848 84.976 52.936 85.28 52.968C85.6 53 85.928 53 86.264 52.968C86.616 52.936 86.92 52.896 87.176 52.848C87.752 52.752 88.192 52.56 88.496 52.272C88.816 51.968 89 51.528 89.048 50.952C89.112 50.232 88.92 49.736 88.472 49.464C88.04 49.176 87.448 49.016 86.696 48.984ZM97.1274 52.896C97.6074 52.656 98.1114 52.488 98.6394 52.392C99.1674 52.28 99.6874 52.256 100.199 52.32C100.727 52.368 101.231 52.504 101.711 52.728C102.191 52.936 102.639 53.24 103.055 53.64C103.471 54.056 103.791 54.512 104.015 55.008C104.239 55.504 104.399 56.056 104.495 56.664C104.559 57.08 104.663 57.464 104.807 57.816C104.951 58.168 105.103 58.52 105.263 58.872C105.439 59.224 105.599 59.576 105.743 59.928C105.903 60.28 106.031 60.648 106.127 61.032C106.207 61.4 106.175 61.76 106.031 62.112C105.903 62.448 105.631 62.656 105.215 62.736C104.975 62.784 104.743 62.768 104.519 62.688C104.311 62.592 104.119 62.464 103.943 62.304C103.767 62.128 103.607 61.944 103.463 61.752C103.335 61.544 103.215 61.352 103.103 61.176C102.735 61.656 102.335 62.032 101.903 62.304C101.471 62.56 100.951 62.728 100.343 62.808C99.8314 62.872 99.3434 62.888 98.8794 62.856C98.4154 62.824 97.9194 62.736 97.3914 62.592C96.7034 62.416 96.1354 62.112 95.6874 61.68C95.2554 61.232 94.9194 60.72 94.6794 60.144C94.4554 59.552 94.3354 58.92 94.3194 58.248C94.3034 57.576 94.3834 56.912 94.5594 56.256C94.7834 55.392 95.1194 54.688 95.5674 54.144C96.0154 53.6 96.5354 53.184 97.1274 52.896ZM97.7274 55.704C97.5034 55.928 97.3274 56.192 97.1994 56.496C97.0714 56.8 96.9914 57.12 96.9594 57.456C96.9434 57.792 96.9754 58.128 97.0554 58.464C97.1354 58.8 97.2634 59.096 97.4394 59.352C97.5994 59.576 97.8714 59.768 98.2554 59.928C98.6394 60.072 99.0394 60.16 99.4554 60.192C99.9354 60.224 100.351 60.096 100.703 59.808C101.071 59.52 101.343 59.16 101.519 58.728C101.711 58.28 101.799 57.808 101.783 57.312C101.767 56.8 101.631 56.336 101.375 55.92C101.183 55.616 100.927 55.392 100.607 55.248C100.303 55.104 99.9754 55.032 99.6234 55.032C99.2714 55.016 98.9194 55.072 98.5674 55.2C98.2314 55.312 97.9514 55.48 97.7274 55.704ZM117.052 53.76C117.18 53.984 117.244 54.224 117.244 54.48C117.26 54.736 117.204 54.976 117.076 55.2C116.932 55.488 116.724 55.688 116.452 55.8C116.196 55.896 115.908 55.904 115.588 55.824C115.444 55.792 115.316 55.736 115.204 55.656C115.092 55.576 114.972 55.496 114.844 55.416C114.732 55.32 114.596 55.232 114.436 55.152C114.292 55.072 114.1 55.016 113.86 54.984C113.62 54.952 113.356 54.952 113.068 54.984C112.796 55.016 112.548 55.08 112.324 55.176C111.972 55.352 111.692 55.624 111.484 55.992C111.276 56.344 111.14 56.728 111.076 57.144C111.012 57.544 111.02 57.952 111.1 58.368C111.196 58.784 111.372 59.136 111.628 59.424C111.82 59.648 112.068 59.832 112.372 59.976C112.692 60.12 112.996 60.208 113.284 60.24C113.556 60.272 113.828 60.272 114.1 60.24C114.372 60.192 114.636 60.128 114.892 60.048C115.084 59.968 115.3 59.864 115.54 59.736C115.78 59.592 116.012 59.504 116.236 59.472C116.524 59.472 116.748 59.552 116.908 59.712C117.068 59.856 117.18 60.04 117.244 60.264C117.308 60.472 117.316 60.696 117.268 60.936C117.236 61.176 117.148 61.384 117.004 61.56C116.812 61.8 116.54 62.032 116.188 62.256C115.836 62.464 115.5 62.616 115.18 62.712C114.796 62.84 114.364 62.912 113.884 62.928C113.42 62.944 112.98 62.928 112.564 62.88C112.372 62.848 112.172 62.808 111.964 62.76C111.756 62.712 111.556 62.656 111.364 62.592C110.66 62.336 110.068 61.976 109.588 61.512C109.124 61.032 108.764 60.496 108.508 59.904C108.268 59.312 108.132 58.68 108.1 58.008C108.068 57.336 108.148 56.672 108.34 56.016C108.516 55.392 108.732 54.864 108.988 54.432C109.26 54 109.572 53.648 109.924 53.376C110.292 53.088 110.7 52.864 111.148 52.704C111.596 52.528 112.092 52.376 112.636 52.248C113.196 52.136 113.788 52.136 114.412 52.248C115.036 52.36 115.596 52.568 116.092 52.872C116.476 53.08 116.796 53.376 117.052 53.76ZM123.986 57.48C124.338 57.848 124.594 58.12 124.754 58.296C124.93 58.456 125.05 58.576 125.114 58.656C125.194 58.736 125.25 58.784 125.282 58.8C125.314 58.816 125.37 58.864 125.45 58.944C125.53 59.024 125.658 59.152 125.834 59.328C126.01 59.488 126.274 59.752 126.626 60.12C126.914 60.408 127.146 60.744 127.322 61.128C127.514 61.496 127.498 61.896 127.274 62.328C127.146 62.552 127.002 62.712 126.842 62.808C126.682 62.888 126.506 62.92 126.314 62.904C126.138 62.888 125.946 62.832 125.738 62.736C125.546 62.64 125.354 62.52 125.162 62.376C124.794 62.104 124.442 61.792 124.106 61.44C123.77 61.072 123.498 60.792 123.29 60.6C123.146 60.456 123.058 60.36 123.026 60.312C122.994 60.28 122.962 60.256 122.93 60.24C122.898 60.208 122.866 60.176 122.834 60.144C122.722 60.032 122.602 59.92 122.474 59.808C122.346 59.696 122.218 59.576 122.09 59.448V60.384C122.09 60.56 122.098 60.688 122.114 60.768C122.114 60.928 122.106 61.048 122.09 61.128C122.042 61.304 122.018 61.472 122.018 61.632C122.002 61.712 121.986 61.792 121.97 61.872C121.954 61.936 121.93 62.008 121.898 62.088C121.882 62.12 121.866 62.144 121.85 62.16C121.85 62.176 121.85 62.2 121.85 62.232C121.834 62.264 121.818 62.288 121.802 62.304C121.802 62.32 121.794 62.344 121.778 62.376C121.698 62.536 121.57 62.688 121.394 62.832C121.09 63.008 120.714 63.056 120.266 62.976C120.026 62.928 119.842 62.84 119.714 62.712C119.57 62.616 119.474 62.48 119.426 62.304C119.394 62.224 119.362 62.144 119.33 62.064C119.314 61.968 119.29 61.88 119.258 61.8C119.226 61.72 119.21 61.648 119.21 61.584C119.21 61.504 119.21 61.44 119.21 61.392V47.736C119.21 47.64 119.21 47.544 119.21 47.448C119.21 47.352 119.218 47.256 119.234 47.16C119.25 47.064 119.266 46.976 119.282 46.896C119.314 46.8 119.346 46.712 119.378 46.632C119.442 46.472 119.522 46.344 119.618 46.248C119.698 46.168 119.778 46.112 119.858 46.08C119.954 46.032 120.042 45.992 120.122 45.96C120.202 45.944 120.29 45.936 120.386 45.936C120.498 45.92 120.602 45.912 120.698 45.912C120.922 45.912 121.146 45.976 121.37 46.104C121.578 46.248 121.73 46.432 121.826 46.656C121.954 46.96 122.018 47.256 122.018 47.544C122.034 47.704 122.05 47.952 122.066 48.288C122.082 48.608 122.09 48.848 122.09 49.008V49.104C122.106 49.632 122.114 50.136 122.114 50.616C122.114 51.096 122.114 51.616 122.114 52.176C122.098 52.736 122.09 53.272 122.09 53.784C122.09 54.28 122.09 54.776 122.09 55.272V55.536C122.218 55.408 122.346 55.288 122.474 55.176C122.602 55.064 122.722 54.944 122.834 54.816C122.898 54.768 122.962 54.712 123.026 54.648L123.29 54.384C123.498 54.176 123.77 53.896 124.106 53.544C124.442 53.176 124.794 52.856 125.162 52.584C125.562 52.296 125.946 52.12 126.314 52.056C126.698 51.992 127.018 52.184 127.274 52.632C127.498 53.064 127.514 53.472 127.322 53.856C127.146 54.224 126.914 54.568 126.626 54.888C126.274 55.256 126.01 55.528 125.834 55.704C125.658 55.864 125.53 55.984 125.45 56.064C125.37 56.128 125.314 56.168 125.282 56.184C125.25 56.2 125.194 56.248 125.114 56.328C125.05 56.392 124.93 56.512 124.754 56.688C124.594 56.848 124.338 57.112 123.986 57.48ZM146.825 52.416C146.953 52.72 146.961 53.056 146.849 53.424C146.753 53.792 146.569 54.032 146.297 54.144C146.153 54.208 145.961 54.264 145.721 54.312C145.481 54.344 145.217 54.376 144.929 54.408C144.657 54.44 144.385 54.464 144.113 54.48C143.841 54.496 143.609 54.504 143.417 54.504C143.433 54.984 143.449 55.48 143.465 55.992C143.481 56.488 143.497 56.976 143.513 57.456C143.529 57.936 143.537 58.4 143.537 58.848C143.537 59.28 143.529 59.672 143.513 60.024C143.513 60.264 143.513 60.544 143.513 60.864C143.513 61.168 143.489 61.464 143.441 61.752C143.409 62.04 143.353 62.296 143.273 62.52C143.193 62.728 143.073 62.864 142.913 62.928C142.417 63.136 141.961 63.192 141.545 63.096C141.145 63.016 140.857 62.848 140.681 62.592C140.553 62.384 140.457 62.144 140.393 61.872C140.329 61.584 140.281 61.296 140.249 61.008C140.233 60.704 140.225 60.416 140.225 60.144C140.241 59.856 140.249 59.608 140.249 59.4C140.265 58.728 140.273 57.968 140.273 57.12C140.289 56.256 140.297 55.392 140.297 54.528H139.937C139.745 54.528 139.497 54.528 139.193 54.528C138.905 54.512 138.609 54.488 138.305 54.456C138.017 54.408 137.745 54.352 137.489 54.288C137.233 54.208 137.049 54.096 136.937 53.952C136.761 53.744 136.649 53.52 136.601 53.28C136.569 53.04 136.585 52.816 136.649 52.608C136.729 52.384 136.849 52.192 137.009 52.032C137.169 51.856 137.353 51.744 137.561 51.696C137.849 51.616 138.257 51.576 138.785 51.576C139.313 51.56 139.809 51.56 140.273 51.576C140.257 51.416 140.249 51.264 140.249 51.12C140.249 50.96 140.241 50.808 140.225 50.664C140.209 50.472 140.201 50.232 140.201 49.944C140.201 49.64 140.217 49.344 140.249 49.056C140.297 48.752 140.369 48.472 140.465 48.216C140.561 47.944 140.697 47.736 140.873 47.592C141.113 47.4 141.353 47.296 141.593 47.28C141.849 47.248 142.081 47.28 142.289 47.376C142.513 47.472 142.697 47.616 142.841 47.808C143.001 47.984 143.113 48.184 143.177 48.408C143.225 48.6 143.265 48.832 143.297 49.104C143.329 49.36 143.345 49.632 143.345 49.92C143.361 50.208 143.369 50.496 143.369 50.784C143.369 51.072 143.369 51.336 143.369 51.576H143.609C143.849 51.576 144.129 51.568 144.449 51.552C144.769 51.536 145.081 51.544 145.385 51.576C145.705 51.608 145.993 51.688 146.249 51.816C146.505 51.928 146.697 52.128 146.825 52.416ZM150.665 52.152C151.193 51.896 151.745 51.712 152.321 51.6C152.897 51.488 153.465 51.464 154.025 51.528C154.601 51.592 155.153 51.744 155.681 51.984C156.225 52.224 156.721 52.56 157.169 52.992C157.537 53.36 157.857 53.808 158.129 54.336C158.401 54.848 158.601 55.352 158.729 55.848C159.001 56.728 159.041 57.616 158.849 58.512C158.657 59.408 158.329 60.24 157.865 61.008C157.641 61.36 157.361 61.68 157.025 61.968C156.705 62.24 156.361 62.464 155.993 62.64C155.513 62.864 154.993 63.016 154.433 63.096C153.873 63.192 153.329 63.216 152.801 63.168C151.841 63.12 150.993 62.88 150.257 62.448C149.537 62.016 148.953 61.464 148.505 60.792C148.073 60.12 147.785 59.36 147.641 58.512C147.513 57.648 147.569 56.768 147.809 55.872C148.065 54.912 148.433 54.136 148.913 53.544C149.409 52.936 149.993 52.472 150.665 52.152ZM151.385 55.368C151.145 55.592 150.961 55.872 150.833 56.208C150.705 56.544 150.625 56.896 150.593 57.264C150.561 57.616 150.585 57.976 150.665 58.344C150.761 58.696 150.905 59.016 151.097 59.304C151.257 59.544 151.545 59.744 151.961 59.904C152.377 60.064 152.809 60.16 153.257 60.192C153.769 60.224 154.217 60.088 154.601 59.784C154.985 59.464 155.273 59.072 155.465 58.608C155.673 58.144 155.769 57.64 155.753 57.096C155.737 56.552 155.593 56.056 155.321 55.608C155.129 55.288 154.857 55.056 154.505 54.912C154.169 54.752 153.809 54.672 153.425 54.672C153.057 54.656 152.689 54.712 152.321 54.84C151.953 54.952 151.641 55.128 151.385 55.368ZM177.437 58.272C177.453 58.592 177.461 58.928 177.461 59.28C177.461 59.616 177.453 59.928 177.437 60.216C177.421 60.648 177.397 61.048 177.365 61.416C177.333 61.768 177.269 62.072 177.173 62.328C177.077 62.568 176.925 62.752 176.717 62.88C176.525 62.992 176.253 63.024 175.901 62.976C175.533 62.928 175.269 62.752 175.109 62.448C174.949 62.144 174.837 61.8 174.773 61.416C174.725 61.016 174.709 60.616 174.725 60.216C174.741 59.816 174.741 59.504 174.725 59.28C174.709 58.928 174.693 58.528 174.677 58.08C174.677 57.616 174.629 57.184 174.533 56.784C174.453 56.368 174.309 56.016 174.101 55.728C173.893 55.44 173.581 55.288 173.165 55.272C172.637 55.24 172.229 55.28 171.941 55.392C171.669 55.504 171.469 55.672 171.341 55.896C171.213 56.104 171.133 56.36 171.101 56.664C171.085 56.968 171.053 57.296 171.005 57.648L170.981 58.584V60.336C170.981 60.624 170.973 60.928 170.957 61.248C170.957 61.552 170.909 61.832 170.813 62.088C170.717 62.344 170.565 62.56 170.357 62.736C170.165 62.912 169.877 63 169.493 63C169.013 63 168.653 62.848 168.413 62.544C168.189 62.224 168.077 61.832 168.077 61.368V47.568C168.077 47.472 168.077 47.384 168.077 47.304C168.093 47.208 168.109 47.112 168.125 47.016C168.157 46.92 168.181 46.832 168.197 46.752C168.213 46.656 168.237 46.568 168.269 46.488C168.317 46.328 168.397 46.208 168.509 46.128C168.589 46.048 168.669 45.984 168.749 45.936C168.829 45.888 168.917 45.856 169.013 45.84C169.093 45.824 169.181 45.816 169.277 45.816C169.373 45.8 169.469 45.792 169.565 45.792C169.805 45.792 170.037 45.864 170.261 46.008C170.357 46.072 170.445 46.144 170.525 46.224C170.605 46.288 170.669 46.384 170.717 46.512C170.845 46.816 170.909 47.104 170.909 47.376C170.925 47.456 170.933 47.576 170.933 47.736C170.949 47.88 170.957 48.032 170.957 48.192C170.957 48.352 170.957 48.512 170.957 48.672C170.973 48.816 170.981 48.928 170.981 49.008V49.128C170.997 49.64 171.005 50.16 171.005 50.688C171.005 51.216 171.005 51.752 171.005 52.296V52.704C171.677 52.48 172.381 52.376 173.117 52.392C173.853 52.392 174.509 52.536 175.085 52.824C175.677 53.128 176.125 53.472 176.429 53.856C176.749 54.24 176.981 54.664 177.125 55.128C177.269 55.592 177.349 56.088 177.365 56.616C177.397 57.144 177.421 57.696 177.437 58.272ZM182.47 52.152C182.998 51.896 183.55 51.712 184.126 51.6C184.702 51.488 185.27 51.464 185.83 51.528C186.406 51.592 186.958 51.744 187.486 51.984C188.03 52.224 188.526 52.56 188.974 52.992C189.342 53.36 189.662 53.808 189.934 54.336C190.206 54.848 190.406 55.352 190.534 55.848C190.806 56.728 190.846 57.616 190.654 58.512C190.462 59.408 190.134 60.24 189.67 61.008C189.446 61.36 189.166 61.68 188.83 61.968C188.51 62.24 188.166 62.464 187.798 62.64C187.318 62.864 186.798 63.016 186.238 63.096C185.678 63.192 185.134 63.216 184.606 63.168C183.646 63.12 182.798 62.88 182.062 62.448C181.342 62.016 180.758 61.464 180.31 60.792C179.878 60.12 179.59 59.36 179.446 58.512C179.318 57.648 179.374 56.768 179.614 55.872C179.87 54.912 180.238 54.136 180.718 53.544C181.214 52.936 181.798 52.472 182.47 52.152ZM183.19 55.368C182.95 55.592 182.766 55.872 182.638 56.208C182.51 56.544 182.43 56.896 182.398 57.264C182.366 57.616 182.39 57.976 182.47 58.344C182.566 58.696 182.71 59.016 182.902 59.304C183.062 59.544 183.35 59.744 183.766 59.904C184.182 60.064 184.614 60.16 185.062 60.192C185.574 60.224 186.022 60.088 186.406 59.784C186.79 59.464 187.078 59.072 187.27 58.608C187.478 58.144 187.574 57.64 187.558 57.096C187.542 56.552 187.398 56.056 187.126 55.608C186.934 55.288 186.662 55.056 186.31 54.912C185.974 54.752 185.614 54.672 185.23 54.672C184.862 54.656 184.494 54.712 184.126 54.84C183.758 54.952 183.446 55.128 183.19 55.368ZM205.695 57.408C205.727 57.92 205.743 58.408 205.743 58.872C205.743 59.32 205.727 59.8 205.695 60.312C205.695 60.504 205.695 60.72 205.695 60.96C205.695 61.2 205.679 61.432 205.647 61.656C205.615 61.88 205.559 62.088 205.479 62.28C205.399 62.472 205.279 62.624 205.119 62.736C204.927 62.864 204.711 62.952 204.471 63C204.231 63.032 204.007 63.016 203.799 62.952C203.591 62.888 203.407 62.768 203.247 62.592C203.103 62.416 203.023 62.168 203.007 61.848C202.959 61.112 202.935 60.376 202.935 59.64C202.935 59.272 202.927 58.92 202.911 58.584C202.911 58.248 202.919 57.776 202.935 57.168C202.935 56.864 202.911 56.52 202.863 56.136C202.815 55.736 202.695 55.456 202.503 55.296C202.359 55.168 202.199 55.096 202.023 55.08C201.847 55.048 201.671 55.064 201.495 55.128C201.335 55.192 201.191 55.312 201.063 55.488C200.935 55.648 200.847 55.856 200.799 56.112C200.799 56.32 200.791 56.536 200.775 56.76C200.775 56.968 200.783 57.168 200.799 57.36C200.815 57.872 200.823 58.36 200.823 58.824C200.823 59.272 200.815 59.752 200.799 60.264C200.783 60.472 200.775 60.696 200.775 60.936C200.791 61.176 200.791 61.416 200.775 61.656C200.759 61.88 200.711 62.088 200.631 62.28C200.567 62.472 200.447 62.624 200.271 62.736C200.079 62.864 199.871 62.944 199.647 62.976C199.439 62.992 199.239 62.96 199.047 62.88C198.871 62.784 198.711 62.64 198.567 62.448C198.439 62.256 198.367 62 198.351 61.68C198.319 61.312 198.295 60.976 198.279 60.672C198.279 60.352 198.279 60.016 198.279 59.664C198.279 59.296 198.287 58.92 198.303 58.536C198.319 58.136 198.311 57.752 198.279 57.384C198.279 57.272 198.271 57.144 198.255 57C198.255 56.84 198.247 56.68 198.231 56.52C198.231 56.36 198.215 56.208 198.183 56.064C198.167 55.904 198.135 55.776 198.087 55.68C197.959 55.456 197.727 55.312 197.391 55.248C197.071 55.184 196.799 55.208 196.575 55.32C196.351 55.432 196.183 55.576 196.071 55.752C195.959 55.928 195.879 56.12 195.831 56.328C195.783 56.536 195.759 56.76 195.759 57C195.759 57.224 195.759 57.44 195.759 57.648C195.759 58.688 195.759 59.592 195.759 60.36C195.775 61.112 195.695 61.72 195.519 62.184C195.439 62.424 195.271 62.608 195.015 62.736C194.775 62.864 194.511 62.928 194.223 62.928C193.951 62.928 193.695 62.864 193.455 62.736C193.215 62.608 193.055 62.408 192.975 62.136C192.927 61.96 192.879 61.712 192.831 61.392C192.799 61.056 192.775 60.688 192.759 60.288C192.743 59.888 192.735 59.488 192.735 59.088C192.735 58.672 192.735 58.296 192.735 57.96V54.504C192.719 54.136 192.711 53.736 192.711 53.304C192.711 52.872 192.775 52.48 192.903 52.128C193.015 51.824 193.191 51.632 193.431 51.552C193.671 51.456 193.919 51.416 194.175 51.432C194.463 51.432 194.687 51.512 194.847 51.672C195.023 51.816 195.151 52 195.231 52.224C195.311 52.432 195.359 52.672 195.375 52.944C195.391 53.2 195.407 53.448 195.423 53.688C195.599 53.288 195.807 52.96 196.047 52.704C196.303 52.432 196.663 52.256 197.127 52.176C198.311 51.952 199.255 52.256 199.959 53.088C200.279 52.768 200.687 52.504 201.183 52.296C201.567 52.152 201.959 52.088 202.359 52.104C202.759 52.104 203.135 52.176 203.487 52.32C203.855 52.464 204.183 52.672 204.471 52.944C204.775 53.216 205.015 53.544 205.191 53.928C205.431 54.44 205.567 55.008 205.599 55.632C205.631 56.256 205.663 56.848 205.695 57.408ZM215.967 59.712C216.159 59.664 216.351 59.632 216.543 59.616C216.751 59.6 216.935 59.624 217.095 59.688C217.271 59.752 217.415 59.864 217.527 60.024C217.639 60.168 217.695 60.376 217.695 60.648C217.695 60.84 217.647 61.024 217.551 61.2C217.455 61.376 217.335 61.536 217.191 61.68C217.047 61.824 216.887 61.952 216.711 62.064C216.535 62.16 216.367 62.24 216.207 62.304C215.743 62.512 215.207 62.672 214.599 62.784C214.007 62.896 213.391 62.936 212.751 62.904C211.887 62.872 211.055 62.704 210.255 62.4C209.471 62.08 208.855 61.56 208.407 60.84C207.991 60.136 207.743 59.352 207.663 58.488C207.583 57.624 207.623 56.808 207.783 56.04C207.959 55.112 208.255 54.36 208.671 53.784C209.103 53.192 209.615 52.72 210.207 52.368C210.927 51.952 211.735 51.736 212.631 51.72C213.527 51.704 214.383 51.88 215.199 52.248C215.743 52.488 216.231 52.816 216.663 53.232C217.095 53.632 217.423 54.12 217.647 54.696C217.711 54.84 217.759 55.016 217.791 55.224C217.839 55.432 217.871 55.656 217.887 55.896C217.903 56.12 217.903 56.344 217.887 56.568C217.871 56.792 217.831 56.992 217.767 57.168C217.671 57.456 217.551 57.68 217.407 57.84C217.263 58 217.079 58.12 216.855 58.2C216.631 58.28 216.359 58.336 216.039 58.368C215.735 58.384 215.367 58.4 214.935 58.416C214.551 58.432 214.191 58.44 213.855 58.44C213.519 58.44 213.175 58.44 212.823 58.44C212.471 58.424 212.103 58.416 211.719 58.416C211.351 58.4 210.935 58.384 210.471 58.368C210.423 58.688 210.463 58.968 210.591 59.208C210.735 59.432 210.927 59.624 211.167 59.784C211.407 59.928 211.679 60.04 211.983 60.12C212.287 60.2 212.583 60.248 212.871 60.264C213.415 60.296 213.935 60.256 214.431 60.144C214.927 60.016 215.439 59.872 215.967 59.712ZM214.935 55.056C214.631 54.704 214.311 54.448 213.975 54.288C213.719 54.176 213.447 54.128 213.159 54.144C212.887 54.144 212.623 54.184 212.367 54.264C211.903 54.376 211.511 54.616 211.191 54.984C211.159 55.016 211.103 55.096 211.023 55.224C210.943 55.336 210.863 55.456 210.783 55.584C210.719 55.712 210.671 55.832 210.639 55.944C210.607 56.056 210.623 56.112 210.687 56.112H215.391C215.375 55.888 215.335 55.704 215.271 55.56C215.207 55.4 215.095 55.232 214.935 55.056Z" fill="white"/>
<circle cx="348" cy="55" r="55" fill="#B9B9B9"/>
<circle cx="348" cy="55" r="53" fill="#564278"/>
<path d="M330.857 29L368 55.5L330.857 82M328 35.625L353.714 55.5L328 75.375" stroke="white" stroke-linecap="round" stroke-linejoin="round"/>
<defs>
<filter id="filter0_ii_852_181" x="0" y="27" width="392" height="64.0215" filterUnits="userSpaceOnUse" color-interpolation-filters="sRGB">
<feFlood flood-opacity="0" result="BackgroundImageFix"/>
<feBlend mode="normal" in="SourceGraphic" in2="BackgroundImageFix" result="shape"/>
<feColorMatrix in="SourceAlpha" type="matrix" values="0 0 0 0 0 0 0 0 0 0 0 0 0 0 0 0 0 0 127 0" result="hardAlpha"/>
<feOffset dx="8" dy="8"/>
<feGaussianBlur stdDeviation="25"/>
<feComposite in2="hardAlpha" operator="arithmetic" k2="-1" k3="1"/>
<feColorMatrix type="matrix" values="0 0 0 0 1 0 0 0 0 1 0 0 0 0 1 0 0 0 1 0"/>
<feBlend mode="overlay" in2="shape" result="effect1_innerShadow_852_181"/>
<feColorMatrix in="SourceAlpha" type="matrix" values="0 0 0 0 0 0 0 0 0 0 0 0 0 0 0 0 0 0 127 0" result="hardAlpha"/>
<feOffset dy="4"/>
<feGaussianBlur stdDeviation="2"/>
<feComposite in2="hardAlpha" operator="arithmetic" k2="-1" k3="1"/>
<feColorMatrix type="matrix" values="0 0 0 0 0 0 0 0 0 0 0 0 0 0 0 0 0 0 0.25 0"/>
<feBlend mode="normal" in2="effect1_innerShadow_852_181" result="effect2_innerShadow_852_181"/>
</filter>
</defs>
</svg>
