<svg width="170" height="143" viewBox="0 0 438 143" fill="none" xmlns="http://www.w3.org/2000/svg">
<path fill-rule="evenodd" clip-rule="evenodd" d="M6.13212 141.025L327.918 143C331.267 143.02 334.639 140.281 334.047 137.028L315.826 37.1397C315.233 33.887 313.117 31.0952 309.772 31.0934L25.7482 30.9222C22.4037 30.9204 20.2649 33.6569 19.6207 36.894L0.0802236 134.98C-0.564044 138.218 2.78346 141.006 6.13212 141.025Z" fill="#E0DAE7"/>
<path fill-rule="evenodd" clip-rule="evenodd" d="M10.6387 131.039L429.926 133.013C434.29 133.033 438.683 130.294 437.911 127.042L414.169 27.1532C413.397 23.9005 410.639 21.1087 406.282 21.1069L36.1982 20.9357C31.8403 20.9339 29.0532 23.6704 28.2135 26.9075L2.7532 124.993C1.91354 128.231 6.27497 131.019 10.6387 131.039Z" fill="#E6E6E6"/>
<path fill-rule="evenodd" clip-rule="evenodd" d="M10.4323 119.369L324.044 121.344C327.309 121.364 330.594 118.625 330.017 115.372L312.259 15.4836C311.681 12.2309 309.619 9.43914 306.359 9.43733L29.5496 9.2661C26.2901 9.2643 24.2054 12.0008 23.5776 15.2379L4.53411 113.324C3.90569 116.562 7.1681 119.349 10.4323 119.369Z" fill="#EDFBFF"/>
<path fill-rule="evenodd" clip-rule="evenodd" d="M12.4848 110.103L322.497 112.078C325.723 112.098 328.972 109.359 328.401 106.106L310.846 6.2176C310.275 2.96491 308.236 0.173097 305.014 0.171294L31.3827 8.90147e-07C28.1608 -0.00180182 26.1001 2.73477 25.4793 5.97184L6.65413 104.058C6.03334 107.296 9.2582 110.083 12.4848 110.103Z" fill="white"/>
<path fill-rule="evenodd" clip-rule="evenodd" d="M21.6391 103.749L313.993 105.492C317.036 105.509 320.1 103.092 319.561 100.222L303.007 12.0715C302.469 9.20102 300.546 6.73732 297.507 6.73552L39.4603 6.58471C36.422 6.5829 34.4787 8.99789 33.8931 11.8546L16.1405 98.4143C15.5549 101.272 18.5961 103.732 21.6391 103.749Z" fill="#E6E6E6"/>
<path d="M73.9354 94.516C71.352 94.516 68.7356 94.2107 66.086 93.6002C63.4365 92.9897 60.9856 92.04 58.7335 90.7511C56.5476 89.3944 54.7591 87.6646 53.3681 85.5617C52.0433 83.391 51.3809 80.8132 51.3809 77.8285C51.3809 77.4893 51.3809 77.184 51.3809 76.9127C51.3809 76.5735 51.414 76.1665 51.4803 75.6917C51.679 73.8601 52.1096 71.5876 52.7719 68.8742C53.5006 66.1608 54.3286 63.2778 55.2559 60.2252C56.1833 57.1726 57.0775 54.1539 57.9386 51.1691C58.8659 48.1844 59.6277 45.471 60.2239 43.0289C60.82 40.519 61.1181 38.5178 61.1181 37.0254C61.1181 35.3974 60.6875 34.5834 59.8264 34.5834C58.9653 34.5834 57.6736 35.4313 55.9514 37.1272C54.2292 38.8231 52.242 41.6383 49.9899 45.5727L49.3937 45.3692C49.3937 39.8745 50.586 35.1939 52.9707 31.3273C55.4215 27.3928 58.8659 24.408 63.304 22.373C67.8082 20.2701 73.1074 19.2186 79.2014 19.2186C84.898 19.2186 89.7997 20.1005 93.9065 21.8642C98.0133 23.5601 101.358 25.9004 103.942 28.8852C106.591 31.8699 108.545 35.2956 109.804 39.1623C111.062 42.961 111.692 46.9633 111.692 51.1691C111.692 56.2568 110.797 61.3784 109.009 66.5339C107.287 71.6215 104.77 76.3022 101.458 80.5758C98.212 84.7816 94.2377 88.1734 89.5347 90.7511C84.8979 93.261 79.6982 94.516 73.9354 94.516ZM75.6245 81.0846C78.274 81.0846 80.6586 80.3045 82.7783 78.7443C84.9642 77.1162 86.852 74.9794 88.4417 72.3338C90.0315 69.6882 91.2569 66.7713 92.118 63.583C92.9791 60.3269 93.4097 57.0708 93.4097 53.8147C93.4097 49.9481 92.7473 46.3189 91.4225 42.9271C90.164 39.5354 88.1105 36.788 85.2623 34.6851C82.414 32.5822 78.7046 31.5308 74.1341 31.5308C74.4653 32.8196 74.6971 34.1424 74.8296 35.4991C75.0283 36.8559 75.1277 38.2465 75.1277 39.671C75.1277 42.7915 74.8296 45.9797 74.2334 49.2358C73.7035 52.4919 73.0743 55.6463 72.3456 58.6989C71.6832 61.7515 71.054 64.6006 70.4578 67.2461C69.9279 69.8917 69.6629 72.2321 69.6629 74.2671C69.6629 76.37 70.0935 78.032 70.9546 79.253C71.8157 80.4741 73.3723 81.0846 75.6245 81.0846Z" fill="#2B2B2B"/>
<path d="M143.229 94.516C138.791 94.516 134.949 93.702 131.703 92.0739C128.524 90.378 125.874 88.1056 123.754 85.2565C121.701 82.3395 120.144 79.0495 119.085 75.3864C118.091 71.7233 117.594 67.8567 117.594 63.7865C117.594 58.631 118.356 53.4755 119.879 48.32C121.469 43.1646 123.754 38.45 126.735 34.1764C129.782 29.9027 133.492 26.477 137.863 23.8993C142.235 21.2537 147.236 19.9309 152.867 19.9309C157.305 19.9309 161.113 20.7788 164.293 22.4747C167.539 24.1028 170.188 26.3753 172.242 29.2922C174.361 32.1413 175.918 35.3974 176.911 39.0605C177.971 42.7236 178.501 46.5902 178.501 50.6604C178.501 55.748 177.706 60.9035 176.117 66.1269C174.593 71.2824 172.308 75.9969 169.261 80.2706C166.28 84.5442 162.604 88.0038 158.232 90.6494C153.86 93.2271 148.859 94.516 143.229 94.516ZM146.905 81.5933C149.223 81.5933 151.244 80.7793 152.966 79.1513C154.688 77.5232 156.112 75.3864 157.238 72.7408C158.431 70.0274 159.325 67.0426 159.921 63.7865C160.517 60.5304 160.815 57.2404 160.815 53.9165C160.815 50.2534 160.418 46.8277 159.623 43.6394C158.894 40.3833 157.702 37.7716 156.046 35.8044C154.456 33.7693 152.37 32.7518 149.786 32.7518C147.534 32.7518 145.514 33.5658 143.726 35.1939C141.937 36.7541 140.414 38.8909 139.155 41.6043C137.897 44.2499 136.936 47.2008 136.274 50.4569C135.678 53.6451 135.379 56.8673 135.379 60.1234C135.379 63.8544 135.81 67.3479 136.671 70.604C137.532 73.8601 138.824 76.5057 140.546 78.5407C142.268 80.5758 144.388 81.5933 146.905 81.5933Z" fill="#2B2B2B"/>
<path d="M207.998 94.4142C203.825 94.4142 200.215 93.5663 197.168 91.8704C194.187 90.1067 191.703 87.7325 189.716 84.7477C187.795 81.6951 186.371 78.2694 185.444 74.4706C184.583 70.604 184.218 66.6017 184.351 62.4637C184.616 55.0697 185.941 48.6931 188.325 43.3341C190.71 37.9751 193.724 33.5658 197.367 30.1062C201.01 26.6466 204.918 24.1028 209.091 22.4747C213.331 20.7788 217.404 19.9309 221.312 19.9309C224.624 19.9309 227.605 20.5075 230.255 21.6607C232.971 22.7461 235.123 24.3741 236.713 26.5449C238.303 28.6478 239.098 31.2255 239.098 34.2781C239.098 36.6523 238.402 38.9588 237.011 41.1973C235.686 43.3681 233.633 45.1657 230.851 46.5902C228.135 47.947 224.624 48.6253 220.319 48.6253C221.047 46.4546 221.577 44.5552 221.909 42.9271C222.24 41.2991 222.405 39.9084 222.405 38.7552C222.405 36.381 221.875 34.7869 220.816 33.9728C219.756 33.091 218.431 32.6501 216.841 32.6501C214.92 32.6501 213.099 33.3623 211.377 34.7869C209.654 36.2114 208.098 38.1447 206.707 40.5868C205.382 42.961 204.322 45.6066 203.527 48.5236C202.732 51.4405 202.269 54.3913 202.136 57.3761C201.871 64.9058 202.931 70.604 205.316 74.4706C207.7 78.3372 210.78 80.2706 214.556 80.2706C217.471 80.2706 220.683 79.0495 224.194 76.6074C227.771 74.1654 231.281 70.4683 234.726 65.5163L236.018 66.1269C235.156 72.232 233.269 77.3875 230.354 81.5933C227.44 85.7991 223.995 88.9874 220.021 91.1581C216.113 93.3289 212.105 94.4142 207.998 94.4142Z" fill="#2B2B2B"/>
<path d="M260.125 94.4142C255.687 94.4142 252.011 93.6341 249.096 92.0739C246.248 90.5137 244.128 88.5126 242.737 86.0705C241.346 83.6284 240.651 81.1185 240.651 78.5407C240.651 76.0308 241.247 73.6566 242.439 71.418C243.632 69.1116 245.321 67.2122 247.507 65.7198C249.759 64.2275 252.408 63.4813 255.455 63.4813C255.389 64.0918 255.356 64.6684 255.356 65.2111C255.356 65.6859 255.356 65.9234 255.356 65.9234C255.356 70.4683 255.787 74.0636 256.648 76.7092C257.509 79.2869 258.602 81.1524 259.926 82.3056C261.251 83.391 262.609 83.9337 264 83.9337C266.12 83.9337 268.008 83.0857 269.664 81.3898C271.32 79.6261 272.148 77.5911 272.148 75.2846C272.148 72.7069 271.055 70.4344 268.869 68.4672C266.749 66.5 264.033 64.3292 260.721 61.955C258.867 60.5304 256.879 58.9363 254.76 57.1726C252.706 55.341 250.951 53.2042 249.494 50.7621C248.037 48.2522 247.308 45.3014 247.308 41.9096C247.308 38.3821 248.103 35.2617 249.693 32.5483C251.349 29.8349 253.501 27.5624 256.151 25.7308C258.867 23.8314 261.814 22.4069 264.994 21.4572C268.24 20.4397 271.452 19.9309 274.632 19.9309C278.54 19.9309 281.752 20.5753 284.269 21.8642C286.786 23.1531 288.674 24.8151 289.933 26.8501C291.191 28.8852 291.821 30.9881 291.821 33.1588C291.821 35.1939 291.258 37.1611 290.132 39.0605C289.072 40.8921 287.482 42.3844 285.362 43.5376C283.243 44.6908 280.626 45.2675 277.513 45.2675C277.712 44.3178 277.844 43.4698 277.91 42.7236C277.977 41.9096 278.01 41.1973 278.01 40.5868C278.01 37.195 277.281 34.7869 275.824 33.3623C274.433 31.8699 272.876 31.1238 271.154 31.1238C269.498 31.1238 267.908 31.7682 266.385 33.0571C264.861 34.2781 264.1 36.2792 264.1 39.0605C264.1 41.4347 264.696 43.4698 265.888 45.1657C267.147 46.8616 268.736 48.354 270.657 49.6428C272.644 50.9317 274.731 52.1867 276.917 53.4077C279.169 54.6287 281.322 55.9855 283.375 57.4778C285.495 58.9024 287.25 60.5983 288.641 62.5655C290.032 64.5327 290.728 67.0087 290.728 69.9935C290.728 73.1139 289.9 76.1665 288.244 79.1513C286.588 82.0682 284.336 84.6799 281.487 86.9863C278.639 89.2248 275.36 91.0225 271.651 92.3792C268.008 93.7359 264.166 94.4142 260.125 94.4142Z" fill="#2B2B2B"/>
<path fill-rule="evenodd" clip-rule="evenodd" d="M324.765 36.1015H404.883C406.128 36.1015 407.405 37.1447 407.721 38.4186H323.077C322.761 37.1447 323.521 36.1015 324.765 36.1015Z" fill="#FEFEFE"/>
<path fill-rule="evenodd" clip-rule="evenodd" d="M324.523 35.1221H404.438C405.682 35.1221 406.959 36.1652 407.275 37.4391H322.834C322.519 36.1652 323.278 35.1221 324.523 35.1221Z" fill="#CCCCCC"/>
<path fill-rule="evenodd" clip-rule="evenodd" d="M328.057 49.3781H408.176C409.42 49.3781 410.697 50.4212 411.013 51.6951H326.369C326.053 50.4212 326.812 49.3781 328.057 49.3781Z" fill="#FEFEFE"/>
<path fill-rule="evenodd" clip-rule="evenodd" d="M327.814 48.3986H407.729C408.974 48.3986 410.25 49.4417 410.566 50.7157H326.126C325.81 49.4417 326.569 48.3986 327.814 48.3986Z" fill="#CCCCCC"/>
<path fill-rule="evenodd" clip-rule="evenodd" d="M332.262 66.3437H412.381C413.625 66.3437 414.902 67.3868 415.218 68.6607H330.574C330.258 67.3868 331.018 66.3437 332.262 66.3437Z" fill="#FEFEFE"/>
<path fill-rule="evenodd" clip-rule="evenodd" d="M332.02 65.3642H411.935C413.179 65.3642 414.456 66.4073 414.772 67.6813H330.332C330.016 66.4073 330.775 65.3642 332.02 65.3642Z" fill="#CCCCCC"/>
<path fill-rule="evenodd" clip-rule="evenodd" d="M336.085 81.7644H416.203C417.448 81.7644 418.725 82.8076 419.04 84.0815H334.397C334.081 82.8076 334.84 81.7644 336.085 81.7644Z" fill="#FEFEFE"/>
<path fill-rule="evenodd" clip-rule="evenodd" d="M335.842 80.7849H415.757C417.001 80.7849 418.278 81.8281 418.594 83.102H334.154C333.838 81.8281 334.597 80.7849 335.842 80.7849Z" fill="#CCCCCC"/>
<path fill-rule="evenodd" clip-rule="evenodd" d="M341.015 101.657H421.133C422.378 101.657 423.654 102.7 423.971 103.974H339.327C339.011 102.7 339.771 101.657 341.015 101.657Z" fill="#FEFEFE"/>
<path fill-rule="evenodd" clip-rule="evenodd" d="M340.772 100.677H420.687C421.932 100.677 423.208 101.72 423.524 102.994H339.084C338.768 101.72 339.528 100.677 340.772 100.677Z" fill="#CCCCCC"/>
</svg>
