<svg width="836" height="102" viewBox="0 0 836 102" fill="none" xmlns="http://www.w3.org/2000/svg">
<path d="M401.487 33.8292C408.955 33.8292 415.165 36.2138 420.117 40.9831C425.151 45.7523 427.667 51.5724 427.667 58.4433C427.667 68.8709 424.582 77.2373 418.413 83.5424C412.324 89.7666 404.937 92.8787 396.251 92.8787C387.564 92.8787 380.664 90.4133 375.55 85.4824C370.517 80.5515 368 74.4485 368 67.1734C368 56.9883 371.125 48.9048 377.376 42.9231C383.708 36.8605 391.745 33.8292 401.487 33.8292ZM399.051 43.6506C395.236 43.6506 392.029 45.8331 389.431 50.1982C386.834 54.5632 385.413 60.06 385.17 66.6884C385.17 71.3768 386.103 75.2568 387.97 78.3286C389.919 81.4003 392.841 82.9361 396.738 82.9361C400.634 82.9361 403.881 80.794 406.479 76.5098C409.158 72.2256 410.498 67.3351 410.498 61.8383C410.498 56.3416 409.564 51.9765 407.697 48.7432C405.83 45.3481 402.948 43.6506 399.051 43.6506Z" fill="white"/>
<path d="M478.632 70.4472C476.115 76.9948 472.462 82.3703 467.672 86.5737C462.964 90.6962 457.565 92.7575 451.477 92.7575C445.388 92.7575 440.802 90.7771 437.717 86.8162C434.713 82.7744 433.211 78.1669 433.211 72.9935C433.211 71.9426 433.252 70.8918 433.333 69.8409L437.473 35.2842C440.071 34.3142 442.831 33.8292 445.754 33.8292C451.112 33.8292 453.79 35.8097 453.79 39.7705C453.79 39.9322 453.1 45.3481 451.72 56.0183C450.422 66.6076 449.772 72.751 449.772 74.4485C449.772 79.0561 452.005 81.3598 456.469 81.3598C460.285 81.3598 463.491 79.2177 466.089 74.9335C470.635 67.1734 473.03 58.4029 473.274 48.6219H472.178C468.768 48.6219 466.17 47.854 464.384 46.3181C462.355 44.5398 461.34 42.3977 461.34 39.8918C461.34 37.3859 462.111 35.3651 463.654 33.8292C465.521 32.2125 467.753 31.4042 470.351 31.4042C476.521 31.4042 480.377 34.5971 481.919 40.9831C484.355 40.6597 486.1 40.3364 487.155 40.013V46.9244L482.65 47.6519V49.7132C482.569 56.9883 481.229 63.8996 478.632 70.4472ZM468.281 39.8918C468.281 41.266 469.458 41.9531 471.812 41.9531C472.056 41.9531 472.299 41.9531 472.543 41.9531C471.975 39.7705 471.122 38.6793 469.986 38.6793C468.849 38.6793 468.281 39.0834 468.281 39.8918Z" fill="white"/>
<path d="M510.791 64.9909C515.824 63.94 519.558 61.9192 521.994 58.9283C524.51 55.9374 525.769 53.0678 525.769 50.3194C525.769 47.4902 524.997 45.5906 523.455 44.6206C521.994 43.5697 520.37 43.0443 518.584 43.0443C514.769 43.0443 511.4 45.1864 508.477 49.4707C505.636 53.6741 504.215 58.7262 504.215 64.6271C504.215 70.4472 505.596 74.8123 508.356 77.7223C511.197 80.5515 514.688 81.9661 518.828 81.9661C524.916 81.9661 530.761 79.8644 536.363 75.661C541.964 71.4576 546.51 65.9609 550.001 59.1708C551.787 60.8683 553.41 62.97 554.872 65.4759C552.193 71.5385 547.444 77.4798 540.625 83.2999C537.215 86.1291 533.156 88.4329 528.448 90.2112C523.82 91.9896 519.031 92.8787 514.079 92.8787C505.961 92.8787 499.548 90.4133 494.839 85.4824C489.806 80.1473 487.29 73.3168 487.29 64.9909C487.29 56.6649 490.415 49.3898 496.666 43.1656C502.998 36.9413 510.548 33.8292 519.315 33.8292C525.566 33.8292 530.64 35.2034 534.536 37.9518C538.433 40.6193 540.422 44.2568 540.503 48.8644C540.503 55.0887 537.986 60.1408 532.953 64.0209C528.001 67.9009 521.182 70.6089 512.496 72.1447L510.791 64.9909Z" fill="white"/>
<path d="M580.787 49.7132C580.787 46.1565 579.122 44.3781 575.794 44.3781C572.547 44.3781 569.949 46.4798 568.001 50.6832C576.768 57.5541 581.152 65.2738 581.152 73.8422C581.152 80.0665 579.407 84.7953 575.916 88.0287C572.425 91.2621 568.041 92.8787 562.765 92.8787C557.488 92.8787 553.632 91.2621 551.197 88.0287C548.761 84.7145 547.544 80.5515 547.544 75.5398C547.544 74.0039 547.584 72.8722 547.665 72.1447L551.927 35.163C554.85 34.2738 557.813 33.8292 560.816 33.8292C565.768 33.8292 568.244 35.648 568.244 39.2855V39.528C571.492 35.7288 575.632 33.8292 580.665 33.8292C584.318 33.8292 587.159 34.678 589.189 36.3755C591.218 37.9922 592.233 40.1747 592.233 42.9231C592.233 45.6714 591.178 47.9348 589.067 49.7132C587.038 51.4107 584.359 52.2594 581.03 52.2594C580.868 52.2594 580.706 52.2594 580.543 52.2594C580.706 51.3703 580.787 50.5215 580.787 49.7132ZM573.237 73.236C573.237 68.5476 570.802 63.8592 565.931 59.1708C564.47 70.811 563.739 76.6714 563.739 76.7523C563.739 80.1473 565.119 81.8448 567.879 81.8448C571.451 81.8448 573.237 78.9752 573.237 73.236Z" fill="white"/>
<path d="M644.046 70.4472C641.53 76.9948 637.877 82.3703 633.087 86.5737C628.379 90.6962 622.98 92.7575 616.892 92.7575C610.803 92.7575 606.217 90.7771 603.132 86.8162C600.128 82.7744 598.626 78.1669 598.626 72.9935C598.626 71.9426 598.667 70.8918 598.748 69.8409L602.888 35.2842C605.486 34.3142 608.246 33.8292 611.169 33.8292C616.526 33.8292 619.205 35.8097 619.205 39.7705C619.205 39.9322 618.515 45.3481 617.135 56.0183C615.836 66.6076 615.187 72.751 615.187 74.4485C615.187 79.0561 617.419 81.3598 621.884 81.3598C625.7 81.3598 628.906 79.2177 631.504 74.9335C636.05 67.1734 638.445 58.4029 638.688 48.6219H637.593C634.183 48.6219 631.585 47.854 629.799 46.3181C627.77 44.5398 626.755 42.3977 626.755 39.8918C626.755 37.3859 627.526 35.3651 629.069 33.8292C630.936 32.2125 633.168 31.4042 635.766 31.4042C641.936 31.4042 645.792 34.5971 647.334 40.9831C649.769 40.6597 651.515 40.3364 652.57 40.013V46.9244L648.065 47.6519V49.7132C647.984 56.9883 646.644 63.8996 644.046 70.4472ZM633.696 39.8918C633.696 41.266 634.873 41.9531 637.227 41.9531C637.471 41.9531 637.714 41.9531 637.958 41.9531C637.39 39.7705 636.537 38.6793 635.401 38.6793C634.264 38.6793 633.696 39.0834 633.696 39.8918Z" fill="white"/>
<path d="M662.811 2.91004C664.678 0.970013 666.951 0 669.63 0C672.309 0 674.582 0.970013 676.449 2.91004C678.398 4.76923 679.372 7.0326 679.372 9.70014C679.372 12.3677 678.398 14.631 676.449 16.4902C674.582 18.3494 672.309 19.279 669.63 19.279C666.951 19.279 664.678 18.3494 662.811 16.4902C660.944 14.631 660.011 12.3677 660.011 9.70014C660.011 7.0326 660.944 4.76923 662.811 2.91004ZM657.819 38.4368C658.63 36.9817 660.173 35.8905 662.446 35.163C664.719 34.3546 666.951 33.9505 669.143 33.9505C671.416 33.9505 673.405 34.2334 675.11 34.7992C671.944 59.1304 670.361 71.4172 670.361 71.6597C669.955 73.2764 669.752 74.6506 669.752 75.7823C669.752 76.8331 669.833 77.7627 669.996 78.5711C670.32 80.6727 671.782 81.7236 674.379 81.7236C677.058 81.7236 679.494 80.0261 681.685 76.631C683.959 73.1552 685.663 69.2347 686.8 64.8696C687.368 65.193 688.261 66.163 689.479 67.7797C690.696 69.3964 691.427 70.6089 691.671 71.4172C690.047 77.884 687.287 83.0978 683.39 87.0587C679.494 91.0195 674.826 93 669.387 93C663.948 93 659.889 91.6662 657.21 88.9987C654.612 86.3312 653.313 82.8957 653.313 78.6923C653.313 77.8031 653.354 76.8735 653.435 75.9035L657.819 38.4368Z" fill="white"/>
<path d="M704.389 64.9909C709.422 63.94 713.156 61.9192 715.592 58.9283C718.108 55.9374 719.367 53.0678 719.367 50.3194C719.367 47.4902 718.595 45.5906 717.053 44.6206C715.592 43.5697 713.968 43.0443 712.182 43.0443C708.367 43.0443 704.998 45.1864 702.075 49.4707C699.234 53.6741 697.813 58.7262 697.813 64.6271C697.813 70.4472 699.193 74.8123 701.953 77.7223C704.795 80.5515 708.285 81.9661 712.426 81.9661C718.514 81.9661 724.359 79.8644 729.961 75.661C735.562 71.4576 740.108 65.9609 743.599 59.1708C745.385 60.8683 747.008 62.97 748.469 65.4759C745.791 71.5385 741.042 77.4798 734.222 83.2999C730.813 86.1291 726.754 88.4329 722.045 90.2112C717.418 91.9896 712.629 92.8787 707.677 92.8787C699.559 92.8787 693.145 90.4133 688.437 85.4824C683.404 80.1473 680.887 73.3168 680.887 64.9909C680.887 56.6649 684.013 49.3898 690.264 43.1656C696.596 36.9413 704.145 33.8292 712.913 33.8292C719.164 33.8292 724.237 35.2034 728.134 37.9518C732.031 40.6193 734.019 44.2568 734.101 48.8644C734.101 55.0887 731.584 60.1408 726.551 64.0209C721.599 67.9009 714.78 70.6089 706.094 72.1447L704.389 64.9909Z" fill="white"/>
<path d="M787.657 72.8722C787.657 78.6923 790.133 81.6023 795.085 81.6023C795.248 81.6023 795.37 81.6023 795.451 81.6023C797.724 81.6023 799.753 80.3898 801.539 77.9648C803.325 75.5398 804.665 72.5085 805.558 68.8709C807.506 61.4342 808.48 54.6845 808.48 48.6219H807.384C803.975 48.6219 801.336 47.854 799.469 46.3181C797.521 44.5398 796.547 42.3977 796.547 39.8918C796.547 37.3859 797.318 35.3651 798.86 33.8292C800.727 32.1317 803.041 31.2829 805.801 31.2829C811.808 31.2829 815.867 34.3546 817.978 40.498C823.661 39.1239 829.668 37.2243 836 34.7992V41.7106C829.993 43.9739 824.391 45.7119 819.196 46.9244C819.277 47.5711 819.318 48.5007 819.318 49.7132C818.993 66.4459 815.056 78.5711 807.506 86.0887C803.041 90.5345 797.237 92.7575 790.093 92.7575C783.03 92.7575 777.753 89.7666 774.263 83.7849C770.285 89.8475 764.196 92.8787 755.997 92.8787C751.127 92.8787 747.108 91.1812 743.942 87.7862C740.857 84.3103 739.315 80.2282 739.315 75.5398C739.315 74.7314 739.355 73.7614 739.437 72.6297C741.141 58.5645 742.562 46.116 743.699 35.2842C746.621 34.3142 749.178 33.8292 751.37 33.8292C757.134 33.8292 760.016 35.8097 760.016 39.7705C760.016 41.3064 759.407 46.601 758.189 55.6545C756.647 67.0522 755.876 73.4785 755.876 74.9335C755.876 76.3077 756.403 77.6819 757.459 79.0561C758.595 80.4302 760.178 81.1173 762.208 81.1173C764.318 81.1173 766.185 80.1877 767.809 78.3286C769.433 76.4694 770.61 74.206 771.34 71.5385L775.602 35.2842C778.2 34.3142 780.96 33.8292 783.883 33.8292C789.159 33.8292 791.798 35.8097 791.798 39.7705C791.798 41.2256 791.229 45.9544 790.093 53.957C788.469 65.2738 787.657 71.5789 787.657 72.8722ZM803.487 39.8918C803.487 41.266 804.665 41.9531 807.019 41.9531C807.262 41.9531 807.506 41.9531 807.749 41.9531C807.181 39.7705 806.329 38.6793 805.192 38.6793C804.056 38.6793 803.487 39.0834 803.487 39.8918Z" fill="white"/>
<path d="M710.023 10.1043C710.023 15.2383 706.018 19.4003 701.077 19.4003C696.135 19.4003 692.13 15.2383 692.13 10.1043C692.13 4.97029 696.135 0.80835 701.077 0.80835C706.018 0.80835 710.023 4.97029 710.023 10.1043Z" fill="white"/>
<path d="M673.459 12.9335C673.459 14.7193 672.005 16.1669 670.211 16.1669C668.418 16.1669 666.964 14.7193 666.964 12.9335C666.964 11.1478 668.418 9.70014 670.211 9.70014C672.005 9.70014 673.459 11.1478 673.459 12.9335Z" fill="black"/>
<path d="M704.307 12.9335C704.307 14.7193 702.853 16.1669 701.06 16.1669C699.266 16.1669 697.812 14.7193 697.812 12.9335C697.812 11.1478 699.266 9.70014 701.06 9.70014C702.853 9.70014 704.307 11.1478 704.307 12.9335Z" fill="black"/>
<path d="M9.9 82.4C7.63333 82.4 5.6 81.5667 3.8 79.9C2 78.1667 1.1 75.2667 1.1 71.2C1.1 68.5333 1.46667 65.5667 2.2 62.3C3 59.0333 3.93333 55.6667 5 52.2C6.13333 48.6667 7.26667 45.2667 8.4 42C9.53333 38.7333 10.4667 35.7667 11.2 33.1C11.9333 30.4333 12.3 28.3333 12.3 26.8C12.3 25 11.6 24.1 10.2 24.1C8.53333 24.1 6.96667 25.0667 5.5 27C4.03333 28.8667 2.4 31.5 0.6 34.9L0 34.7C0 29.4333 1.4 24.8667 4.2 21C7 17.0667 10.7667 14.0333 15.5 11.9C20.3 9.76666 25.6333 8.7 31.5 8.7C37.4333 8.7 42.2333 9.73333 45.9 11.8C49.6333 13.8 52.3667 16.4333 54.1 19.7C55.9 22.9 56.8 26.3333 56.8 30C56.8 33.1333 56.2 36.2667 55 39.4C53.8667 42.4667 52.2 45.2667 50 47.8C47.8667 50.3333 45.3333 52.3667 42.4 53.9C39.4667 55.4333 36.2333 56.2 32.7 56.2C29.0333 56.2 25.2333 55.2667 21.3 53.4C20.4333 56.6667 19.6667 60 19 63.4C18.3333 66.7333 18 70.1667 18 73.7C18 75.4333 18.1 77.1667 18.3 78.9C17.1667 80.0333 15.8333 80.9 14.3 81.5C12.8333 82.1 11.3667 82.4 9.9 82.4ZM25.9 46.2C28.5667 46.2 30.9 45.4667 32.9 44C34.9 42.4667 36.4333 40.5667 37.5 38.3C38.6333 35.9667 39.2 33.6333 39.2 31.3C39.2 28.5667 38.3 26.1333 36.5 24C34.7667 21.8667 31.9 20.8 27.9 20.8C27.3667 20.8 26.7333 20.8333 26 20.9C25.3333 20.9667 24.6333 21.0667 23.9 21.2C24.4333 22.8667 24.7667 24.5333 24.9 26.2C25.1 27.8 25.2 29.3667 25.2 30.9C25.2 33.5667 25 36.1333 24.6 38.6C24.2 41.0667 23.7333 43.5 23.2 45.9C24.1333 46.1 25.0333 46.2 25.9 46.2Z" fill="white"/>
<path d="M72.368 82.4C69.968 82.4 67.8346 81.4333 65.968 79.5C64.1013 77.5 63.168 74.7 63.168 71.1C63.168 69.3667 63.368 67.4 63.768 65.2C64.168 63 64.6346 60.7667 65.168 58.5C65.7013 56.1667 66.168 54 66.568 52C66.968 49.9333 67.168 48.2333 67.168 46.9C67.168 45.5 66.9013 44.4 66.368 43.6C65.9013 42.7333 65.268 42.3 64.468 42.3C63.2013 42.3 61.9013 43.1667 60.568 44.9L59.968 44.5C59.9013 43.4333 60.1346 42.1667 60.668 40.7C61.2013 39.2333 62.0346 37.8333 63.168 36.5C64.3013 35.1 65.7346 33.9333 67.468 33C69.268 32.0667 71.368 31.6 73.768 31.6C77.3013 31.6 79.868 32.6333 81.468 34.7C83.068 36.7 83.868 39.1333 83.868 42C83.868 42.4667 83.8346 42.9667 83.768 43.5C83.768 43.9667 83.7346 44.4333 83.668 44.9C86.068 40.5667 88.568 37.2667 91.168 35C93.8346 32.6667 96.3013 31.5 98.568 31.5C100.701 31.5 102.268 32.3333 103.268 34C104.268 35.6667 104.768 37.6667 104.768 40C104.768 42.1333 104.335 44.3 103.468 46.5C102.668 48.7 101.435 50.5333 99.768 52C98.168 53.4 96.2013 54.0667 93.868 54L93.468 53.8C93.4013 52.0667 92.8346 50.7 91.768 49.7C90.7013 48.7 89.5013 48.2 88.168 48.2C86.368 48.2 84.668 49.1 83.068 50.9C81.5346 52.7 80.768 55.3 80.768 58.7C80.768 60.7667 81.0013 63 81.468 65.4C81.9346 67.8 82.168 69.8333 82.168 71.5C82.168 73.5 81.7013 75.3333 80.768 77C79.8346 78.6667 78.6346 80 77.168 81C75.7013 81.9333 74.1013 82.4 72.368 82.4Z" fill="white"/>
<path d="M127.585 82.7C122.585 82.7 118.452 81.7 115.185 79.7C111.918 77.7 109.485 75.0667 107.885 71.8C106.352 68.4667 105.585 64.9333 105.585 61.2C105.585 57.6667 106.218 54.1333 107.485 50.6C108.818 47.0667 110.718 43.8667 113.185 41C115.718 38.0667 118.785 35.7333 122.385 34C125.985 32.2 130.118 31.3 134.785 31.3C139.785 31.3 143.885 32.3333 147.085 34.4C150.352 36.4 152.752 39.0667 154.285 42.4C155.885 45.7333 156.685 49.3 156.685 53.1C156.685 56.5667 156.052 60.0667 154.785 63.6C153.518 67.0667 151.618 70.2667 149.085 73.2C146.618 76.0667 143.585 78.3667 139.985 80.1C136.385 81.8333 132.252 82.7 127.585 82.7ZM130.285 74.2C132.085 74.2 133.585 73.2667 134.785 71.4C135.985 69.5333 136.885 67.1667 137.485 64.3C138.085 61.3667 138.385 58.4 138.385 55.4C138.385 52.7333 138.118 50.2333 137.585 47.9C137.118 45.5 136.385 43.5667 135.385 42.1C134.385 40.5667 133.085 39.8 131.485 39.8C129.752 39.8 128.252 40.7333 126.985 42.6C125.785 44.4667 124.885 46.8333 124.285 49.7C123.685 52.5667 123.385 55.5333 123.385 58.6C123.385 61.2667 123.618 63.8 124.085 66.2C124.618 68.5333 125.385 70.4667 126.385 72C127.385 73.4667 128.685 74.2 130.285 74.2Z" fill="white"/>
<path d="M179.823 28.5C177.157 28.5 174.957 27.7 173.223 26.1C171.557 24.4333 170.723 22.3667 170.723 19.9C170.723 17.2333 171.723 14.9333 173.723 13C175.723 11.0667 178.157 10.1 181.023 10.1C183.69 10.1 185.857 10.9333 187.523 12.6C189.257 14.2667 190.123 16.3333 190.123 18.8C190.123 21.4667 189.123 23.7667 187.123 25.7C185.123 27.5667 182.69 28.5 179.823 28.5ZM160.323 102C157.39 102 154.89 101.433 152.823 100.3C150.757 99.2333 149.223 97.8667 148.223 96.2C147.157 94.5333 146.623 92.8 146.623 91C146.623 88.3333 147.79 85.9 150.123 83.7C152.39 81.5667 155.923 80.5 160.723 80.5C159.79 82.1667 159.123 83.6667 158.723 85C158.323 86.3333 158.123 87.5667 158.123 88.7C158.123 90.3667 158.457 91.6333 159.123 92.5C159.79 93.3667 160.557 93.8 161.423 93.8C162.89 93.8 163.79 92.5333 164.123 90C164.457 87.5333 164.623 84.2333 164.623 80.1V74.8C164.623 67.7333 164.857 60.8 165.323 54C165.79 47.1333 167.057 40.5333 169.123 34.2C171.323 32.7333 173.99 32 177.123 32C179.057 32 180.89 32.3667 182.623 33.1C184.357 33.7667 185.557 34.8333 186.223 36.3C184.357 41.9667 182.89 47.7333 181.823 53.6C180.823 59.4667 179.823 65.9333 178.823 73C178.29 76.6667 177.657 80.2333 176.923 83.7C176.257 87.1667 175.29 90.2667 174.023 93C172.823 95.8 171.123 98 168.923 99.6C166.79 101.2 163.923 102 160.323 102Z" fill="white"/>
<path d="M210.586 82.7C205.719 82.7 201.686 81.7333 198.486 79.8C195.286 77.8 192.886 75.2 191.286 72C189.686 68.7333 188.886 65.2333 188.886 61.5C188.886 57.9667 189.553 54.4333 190.886 50.9C192.286 47.3 194.286 44.0333 196.886 41.1C199.553 38.1667 202.753 35.8 206.486 34C210.286 32.2 214.553 31.3 219.286 31.3C225.153 31.3 229.419 32.6333 232.086 35.3C234.819 37.9 236.186 41.0667 236.186 44.8C236.186 48 235.319 50.9667 233.586 53.7C231.919 56.3667 229.686 58.5333 226.886 60.2C224.086 61.8 221.019 62.6 217.686 62.6C215.953 62.6 214.186 62.3333 212.386 61.8C210.586 61.2667 208.819 60.4333 207.086 59.3C207.419 63.4333 208.619 66.4333 210.686 68.3C212.753 70.1667 215.219 71.1 218.086 71.1C220.086 71.1 222.086 70.7333 224.086 70C226.086 69.2 227.919 68.2 229.586 67C231.319 65.7333 232.653 64.4 233.586 63L234.286 63.5C234.286 66.9667 233.553 69.9333 232.086 72.4C230.686 74.8 228.819 76.7667 226.486 78.3C224.153 79.8333 221.586 80.9667 218.786 81.7C216.053 82.3667 213.319 82.7 210.586 82.7ZM212.886 55.7C215.019 55.7 216.753 55.1 218.086 53.9C219.419 52.6333 220.419 51.1667 221.086 49.5C221.753 47.8333 222.086 46.3667 222.086 45.1C222.086 43.5667 221.653 42.3 220.786 41.3C219.919 40.2333 218.719 39.7 217.186 39.7C215.986 39.7 214.653 40.1333 213.186 41C211.786 41.8667 210.519 43.3667 209.386 45.5C208.253 47.5667 207.519 50.4667 207.186 54.2C209.319 55.2 211.219 55.7 212.886 55.7Z" fill="white"/>
<path d="M261.316 82.7C256.916 82.7 253.182 81.7 250.116 79.7C247.116 77.7 244.849 75.1 243.316 71.9C241.782 68.6333 241.016 65.1333 241.016 61.4C241.016 57.8667 241.682 54.3333 243.016 50.8C244.416 47.2667 246.449 44.0333 249.116 41.1C251.782 38.1 255.016 35.7333 258.816 34C262.682 32.2 267.116 31.3 272.116 31.3C277.049 31.3 280.716 32.3 283.116 34.3C285.516 36.2333 286.716 38.3667 286.716 40.7C286.716 43.1667 285.482 45.4333 283.016 47.5C280.549 49.5667 276.949 50.6 272.216 50.6C272.482 49.6 272.682 48.6 272.816 47.6C273.016 46.5333 273.116 45.5333 273.116 44.6C273.116 43.2 272.816 42.0333 272.216 41.1C271.616 40.1 270.549 39.6 269.016 39.6C267.616 39.6 266.116 40.2333 264.516 41.5C262.982 42.7667 261.649 44.6333 260.516 47.1C259.449 49.5667 258.916 52.6 258.916 56.2C258.916 59.7333 259.482 62.6 260.616 64.8C261.816 67 263.349 68.6 265.216 69.6C267.082 70.5333 269.049 71 271.116 71C273.849 71 276.482 70.3 279.016 68.9C281.549 67.4333 283.382 65.4333 284.516 62.9L285.516 63.3C285.516 66.7667 284.716 69.7333 283.116 72.2C281.582 74.6 279.582 76.6 277.116 78.2C274.649 79.7333 272.016 80.8667 269.216 81.6C266.416 82.3333 263.782 82.7 261.316 82.7Z" fill="white"/>
<path d="M305.923 82.4C303.789 82.4 301.756 81.9333 299.823 81C297.956 80 296.423 78.4667 295.223 76.4C294.089 74.3333 293.523 71.7 293.523 68.5C293.523 66.7667 293.689 64.5 294.023 61.7C294.356 58.9 294.789 55.8333 295.323 52.5C295.923 49.1667 296.523 45.8333 297.123 42.5C295.789 42.5667 294.489 42.7 293.223 42.9C292.023 43.1 290.823 43.3333 289.623 43.6L289.423 42.9C290.756 41.3 292.156 39.9333 293.623 38.8C295.089 37.6667 296.623 36.7333 298.223 36C299.089 31.6 299.823 27.8 300.423 24.6C301.023 21.3333 301.323 19.4 301.323 18.8C301.323 17.6667 302.189 16.7333 303.923 16C305.723 15.2667 307.723 14.9 309.923 14.9C311.856 14.9 313.656 15.2667 315.323 16C317.056 16.7333 318.223 17.9667 318.823 19.7C318.423 20.1 317.856 21.6 317.123 24.2C316.389 26.7333 315.623 29.8333 314.823 33.5C316.089 33.5667 317.389 33.6333 318.723 33.7C320.056 33.7667 321.423 33.8667 322.823 34C322.956 34.4 323.056 34.8333 323.123 35.3C323.189 35.7667 323.223 36.2667 323.223 36.8C323.223 37.8 323.056 38.9 322.723 40.1C322.456 41.2333 322.123 42.2667 321.723 43.2C320.123 43.0667 318.623 42.9333 317.223 42.8C315.823 42.6 314.456 42.4667 313.123 42.4C312.589 45.2667 312.089 48.1333 311.623 51C311.223 53.8667 310.889 56.4667 310.623 58.8C310.423 61.1333 310.323 62.9667 310.323 64.3C310.323 67.1 310.823 68.9667 311.823 69.9C312.889 70.8333 314.156 71.3 315.623 71.3C316.956 71.3 318.156 71.0333 319.223 70.5C320.289 69.9667 321.056 69.3333 321.523 68.6L322.523 68.9C322.123 71.6333 321.056 74.0333 319.323 76.1C317.589 78.1 315.523 79.6667 313.123 80.8C310.723 81.8667 308.323 82.4 305.923 82.4Z" fill="white"/>
</svg>
