<svg width="578" height="116" viewBox="0 0 578 116" fill="none" xmlns="http://www.w3.org/2000/svg">
<path d="M41.9121 42.1501C51.1121 42.1501 58.7621 45.1001 64.8621 51.0001C71.0621 56.9001 74.1621 64.1001 74.1621 72.6001C74.1621 85.5001 70.3621 95.8501 62.7621 103.65C55.2621 111.35 46.1621 115.2 35.4621 115.2C24.7621 115.2 16.2621 112.15 9.9621 106.05C3.7621 99.9501 0.662109 92.4001 0.662109 83.4001C0.662109 70.8001 4.5121 60.8001 12.2121 53.4001C20.0121 45.9001 29.9121 42.1501 41.9121 42.1501ZM38.9121 54.3001C34.2121 54.3001 30.2621 57.0001 27.0621 62.4001C23.8621 67.8001 22.1121 74.6001 21.8121 82.8001C21.8121 88.6001 22.9621 93.4001 25.2621 97.2001C27.6621 101 31.2621 102.9 36.0621 102.9C40.8621 102.9 44.8621 100.25 48.0621 94.9501C51.3621 89.6501 53.0121 83.6001 53.0121 76.8001C53.0121 70.0001 51.8621 64.6001 49.5621 60.6001C47.2621 56.4001 43.7121 54.3001 38.9121 54.3001Z" fill="white"/>
<path d="M136.942 87.4501C133.842 95.5501 129.342 102.2 123.442 107.4C117.642 112.5 110.992 115.05 103.492 115.05C95.9918 115.05 90.3418 112.6 86.5418 107.7C82.8418 102.7 80.9918 97.0001 80.9918 90.6001C80.9918 89.3001 81.0418 88.0001 81.1418 86.7001L86.2418 43.9501C89.4418 42.7501 92.8418 42.1501 96.4418 42.1501C103.042 42.1501 106.342 44.6001 106.342 49.5001C106.342 49.7001 105.492 56.4001 103.792 69.6001C102.192 82.7001 101.392 90.3001 101.392 92.4001C101.392 98.1001 104.142 100.95 109.642 100.95C114.342 100.95 118.292 98.3001 121.492 93.0001C127.092 83.4001 130.042 72.5501 130.342 60.4501H128.992C124.792 60.4501 121.592 59.5001 119.392 57.6001C116.892 55.4001 115.642 52.7501 115.642 49.6501C115.642 46.5501 116.592 44.0501 118.492 42.1501C120.792 40.1501 123.542 39.1501 126.742 39.1501C134.342 39.1501 139.092 43.1001 140.992 51.0001C143.992 50.6001 146.142 50.2001 147.442 49.8001V58.3501L141.892 59.2501V61.8001C141.792 70.8001 140.142 79.3501 136.942 87.4501ZM124.192 49.6501C124.192 51.3501 125.642 52.2001 128.542 52.2001C128.842 52.2001 129.142 52.2001 129.442 52.2001C128.742 49.5001 127.692 48.1501 126.292 48.1501C124.892 48.1501 124.192 48.6501 124.192 49.6501Z" fill="white"/>
<path d="M176.557 80.7001C182.757 79.4001 187.357 76.9001 190.357 73.2001C193.457 69.5001 195.007 65.9501 195.007 62.5501C195.007 59.0501 194.057 56.7001 192.157 55.5001C190.357 54.2001 188.357 53.5501 186.157 53.5501C181.457 53.5501 177.307 56.2001 173.707 61.5001C170.207 66.7001 168.457 72.9501 168.457 80.2501C168.457 87.4501 170.157 92.8501 173.557 96.4501C177.057 99.9501 181.357 101.7 186.457 101.7C193.957 101.7 201.157 99.1001 208.057 93.9001C214.957 88.7001 220.557 81.9001 224.857 73.5001C227.057 75.6001 229.057 78.2001 230.857 81.3001C227.557 88.8001 221.707 96.1501 213.307 103.35C209.107 106.85 204.107 109.7 198.307 111.9C192.607 114.1 186.707 115.2 180.607 115.2C170.607 115.2 162.707 112.15 156.907 106.05C150.707 99.4501 147.607 91.0001 147.607 80.7001C147.607 70.4001 151.457 61.4001 159.157 53.7001C166.957 46.0001 176.257 42.1501 187.057 42.1501C194.757 42.1501 201.007 43.8501 205.807 47.2501C210.607 50.5501 213.057 55.0501 213.157 60.7501C213.157 68.4501 210.057 74.7001 203.857 79.5001C197.757 84.3001 189.357 87.6501 178.657 89.5501L176.557 80.7001Z" fill="white"/>
<path d="M262.78 61.8001C262.78 57.4001 260.73 55.2001 256.63 55.2001C252.63 55.2001 249.43 57.8001 247.03 63.0001C257.83 71.5001 263.23 81.0501 263.23 91.6501C263.23 99.3501 261.08 105.2 256.78 109.2C252.48 113.2 247.08 115.2 240.58 115.2C234.08 115.2 229.33 113.2 226.33 109.2C223.33 105.1 221.83 99.9501 221.83 93.7501C221.83 91.8501 221.88 90.4501 221.98 89.5501L227.23 43.8001C230.83 42.7001 234.48 42.1501 238.18 42.1501C244.28 42.1501 247.33 44.4001 247.33 48.9001V49.2001C251.33 44.5001 256.43 42.1501 262.63 42.1501C267.13 42.1501 270.63 43.2001 273.13 45.3001C275.63 47.3001 276.88 50.0001 276.88 53.4001C276.88 56.8001 275.58 59.6001 272.98 61.8001C270.48 63.9001 267.18 64.9501 263.08 64.9501C262.88 64.9501 262.68 64.9501 262.48 64.9501C262.68 63.8501 262.78 62.8001 262.78 61.8001ZM253.48 90.9001C253.48 85.1001 250.48 79.3001 244.48 73.5001C242.68 87.9001 241.78 95.1501 241.78 95.2501C241.78 99.4501 243.48 101.55 246.88 101.55C251.28 101.55 253.48 98.0001 253.48 90.9001Z" fill="white"/>
<path d="M340.705 87.4501C337.605 95.5501 333.105 102.2 327.205 107.4C321.405 112.5 314.755 115.05 307.255 115.05C299.755 115.05 294.105 112.6 290.305 107.7C286.605 102.7 284.755 97.0001 284.755 90.6001C284.755 89.3001 284.805 88.0001 284.905 86.7001L290.005 43.9501C293.205 42.7501 296.605 42.1501 300.205 42.1501C306.805 42.1501 310.105 44.6001 310.105 49.5001C310.105 49.7001 309.255 56.4001 307.555 69.6001C305.955 82.7001 305.155 90.3001 305.155 92.4001C305.155 98.1001 307.905 100.95 313.405 100.95C318.105 100.95 322.055 98.3001 325.255 93.0001C330.855 83.4001 333.805 72.5501 334.105 60.4501H332.755C328.555 60.4501 325.355 59.5001 323.155 57.6001C320.655 55.4001 319.405 52.7501 319.405 49.6501C319.405 46.5501 320.355 44.0501 322.255 42.1501C324.555 40.1501 327.305 39.1501 330.505 39.1501C338.105 39.1501 342.855 43.1001 344.755 51.0001C347.755 50.6001 349.905 50.2001 351.205 49.8001V58.3501L345.655 59.2501V61.8001C345.555 70.8001 343.905 79.3501 340.705 87.4501ZM327.955 49.6501C327.955 51.3501 329.405 52.2001 332.305 52.2001C332.605 52.2001 332.905 52.2001 333.205 52.2001C332.505 49.5001 331.455 48.1501 330.055 48.1501C328.655 48.1501 327.955 48.6501 327.955 49.6501Z" fill="white"/>
<path d="M363.821 3.90005C366.121 1.50005 368.921 0.300049 372.221 0.300049C375.521 0.300049 378.321 1.50005 380.621 3.90005C383.021 6.20005 384.221 9.00005 384.221 12.3001C384.221 15.6001 383.021 18.4001 380.621 20.7001C378.321 23.0001 375.521 24.1501 372.221 24.1501C368.921 24.1501 366.121 23.0001 363.821 20.7001C361.521 18.4001 360.371 15.6001 360.371 12.3001C360.371 9.00005 361.521 6.20005 363.821 3.90005ZM357.671 47.8501C358.671 46.0501 360.571 44.7001 363.371 43.8001C366.171 42.8001 368.921 42.3001 371.621 42.3001C374.421 42.3001 376.871 42.6501 378.971 43.3501C375.071 73.4501 373.121 88.6501 373.121 88.9501C372.621 90.9501 372.371 92.6501 372.371 94.0501C372.371 95.3501 372.471 96.5001 372.671 97.5001C373.071 100.1 374.871 101.4 378.071 101.4C381.371 101.4 384.371 99.3001 387.071 95.1001C389.871 90.8001 391.971 85.9501 393.371 80.5501C394.071 80.9501 395.171 82.1501 396.671 84.1501C398.171 86.1501 399.071 87.6501 399.371 88.6501C397.371 96.6501 393.971 103.1 389.171 108C384.371 112.9 378.621 115.35 371.921 115.35C365.221 115.35 360.221 113.7 356.921 110.4C353.721 107.1 352.121 102.85 352.121 97.6501C352.121 96.5501 352.171 95.4001 352.271 94.2001L357.671 47.8501Z" fill="white"/>
<path d="M415.037 80.7001C421.237 79.4001 425.838 76.9001 428.838 73.2001C431.938 69.5001 433.487 65.9501 433.487 62.5501C433.487 59.0501 432.538 56.7001 430.638 55.5001C428.838 54.2001 426.838 53.5501 424.638 53.5501C419.938 53.5501 415.788 56.2001 412.188 61.5001C408.688 66.7001 406.938 72.9501 406.938 80.2501C406.938 87.4501 408.637 92.8501 412.037 96.4501C415.537 99.9501 419.837 101.7 424.938 101.7C432.437 101.7 439.637 99.1001 446.537 93.9001C453.437 88.7001 459.038 81.9001 463.338 73.5001C465.538 75.6001 467.538 78.2001 469.338 81.3001C466.038 88.8001 460.187 96.1501 451.787 103.35C447.587 106.85 442.587 109.7 436.787 111.9C431.087 114.1 425.188 115.2 419.088 115.2C409.088 115.2 401.188 112.15 395.388 106.05C389.188 99.4501 386.088 91.0001 386.088 80.7001C386.088 70.4001 389.938 61.4001 397.638 53.7001C405.438 46.0001 414.737 42.1501 425.537 42.1501C433.237 42.1501 439.487 43.8501 444.287 47.2501C449.087 50.5501 451.538 55.0501 451.638 60.7501C451.638 68.4501 448.538 74.7001 442.338 79.5001C436.238 84.3001 427.838 87.6501 417.138 89.5501L415.037 80.7001Z" fill="white"/>
<path d="M517.611 90.4501C517.611 97.6501 520.661 101.25 526.761 101.25C526.961 101.25 527.111 101.25 527.211 101.25C530.011 101.25 532.511 99.7501 534.711 96.7501C536.911 93.7501 538.561 90.0001 539.661 85.5001C542.061 76.3001 543.261 67.9501 543.261 60.4501H541.911C537.711 60.4501 534.461 59.5001 532.161 57.6001C529.761 55.4001 528.561 52.7501 528.561 49.6501C528.561 46.5501 529.511 44.0501 531.411 42.1501C533.711 40.0501 536.561 39.0001 539.961 39.0001C547.361 39.0001 552.361 42.8001 554.961 50.4001C561.961 48.7001 569.361 46.3501 577.161 43.3501V51.9001C569.761 54.7001 562.861 56.8501 556.461 58.3501C556.561 59.1501 556.611 60.3001 556.611 61.8001C556.211 82.5001 551.361 97.5001 542.061 106.8C536.561 112.3 529.411 115.05 520.611 115.05C511.911 115.05 505.411 111.35 501.111 103.95C496.211 111.45 488.711 115.2 478.611 115.2C472.611 115.2 467.661 113.1 463.761 108.9C459.961 104.6 458.061 99.5501 458.061 93.7501C458.061 92.7501 458.111 91.5501 458.211 90.1501C460.311 72.7501 462.061 57.3501 463.461 43.9501C467.061 42.7501 470.211 42.1501 472.911 42.1501C480.011 42.1501 483.561 44.6001 483.561 49.5001C483.561 51.4001 482.811 57.9501 481.311 69.1501C479.411 83.2501 478.461 91.2001 478.461 93.0001C478.461 94.7001 479.111 96.4001 480.411 98.1001C481.811 99.8001 483.761 100.65 486.261 100.65C488.861 100.65 491.161 99.5001 493.161 97.2001C495.161 94.9001 496.611 92.1001 497.511 88.8001L502.761 43.9501C505.961 42.7501 509.361 42.1501 512.961 42.1501C519.461 42.1501 522.711 44.6001 522.711 49.5001C522.711 51.3001 522.011 57.1501 520.611 67.0501C518.611 81.0501 517.611 88.8501 517.611 90.4501ZM537.111 49.6501C537.111 51.3501 538.561 52.2001 541.461 52.2001C541.761 52.2001 542.061 52.2001 542.361 52.2001C541.661 49.5001 540.611 48.1501 539.211 48.1501C537.811 48.1501 537.111 48.6501 537.111 49.6501Z" fill="white"/>
<path d="M421.978 12.8001C421.978 19.1513 417.044 24.3001 410.957 24.3001C404.871 24.3001 399.937 19.1513 399.937 12.8001C399.937 6.44878 404.871 1.30006 410.957 1.30006C417.044 1.30006 421.978 6.44878 421.978 12.8001Z" fill="white"/>
<path d="M376.937 16.3001C376.937 18.5092 375.146 20.3001 372.937 20.3001C370.727 20.3001 368.937 18.5092 368.937 16.3001C368.937 14.0909 370.727 12.3001 372.937 12.3001C375.146 12.3001 376.937 14.0909 376.937 16.3001Z" fill="black"/>
<path d="M414.937 16.3001C414.937 18.5092 413.146 20.3001 410.937 20.3001C408.727 20.3001 406.937 18.5092 406.937 16.3001C406.937 14.0909 408.727 12.3001 410.937 12.3001C413.146 12.3001 414.937 14.0909 414.937 16.3001Z" fill="black"/>
</svg>
