<?xml version="1.0" encoding="UTF-8"?>
<svg xmlns="http://www.w3.org/2000/svg" xmlns:xlink="http://www.w3.org/1999/xlink" viewBox="0 0 500.32 157.96">
  <defs>
    <style>
      .cls-1 {
        fill: url(#linear-gradient-2);
      }

      .cls-2 {
        fill: url(#linear-gradient-4);
      }

      .cls-3 {
        fill: url(#linear-gradient-3);
      }

      .cls-3, .cls-4, .cls-5 {
        fill-rule: evenodd;
      }

      .cls-6 {
        fill: url(#linear-gradient-5);
      }

      .cls-7 {
        fill: rgba(167, 158, 204, .3);
      }

      .cls-4 {
        fill: #a79ecc;
      }

      .cls-5 {
        fill: url(#linear-gradient);
      }
    </style>
    <linearGradient id="linear-gradient" x1="103.54" y1="84.7" x2="0" y2="84.7" gradientTransform="translate(0 159.42) scale(1 -1)" gradientUnits="userSpaceOnUse">
      <stop offset="0" stop-color="#d1bada"/>
      <stop offset="1" stop-color="#6e65ad"/>
    </linearGradient>
    <linearGradient id="linear-gradient-2" x1="516.56" y1="80.44" x2="367.88" y2="80.44" xlink:href="#linear-gradient"/>
    <linearGradient id="linear-gradient-3" x1="134.59" y1="154.75" x2="146.77" y2="139.23" gradientTransform="translate(0 159.42) scale(1 -1)" gradientUnits="userSpaceOnUse">
      <stop offset="0" stop-color="#63cbe3"/>
      <stop offset="1" stop-color="#145283"/>
    </linearGradient>
    <linearGradient id="linear-gradient-4" x1="357.14" y1="78.12" x2="272.4" y2="78.12" xlink:href="#linear-gradient"/>
    <linearGradient id="linear-gradient-5" x1="261.1" y1="78.12" x2="183.18" y2="78.12" xlink:href="#linear-gradient"/>
  </defs>
  <g id="r">
    <g>
      <path class="cls-5" d="M18.06,92.96c.11,6.93,2.62,13.68,6.16,19.71l.43.39c.6.53,1.02,1.35,1.3,2.39,1.16,1.75,2.39,3.44,3.66,5.03.7-8.02,1.29-18.48,1.57-29.3-4.05,1.11-8.42,1.74-13.12,1.78ZM32.13,123.48c3.71,4.2,7.5,7.61,10.5,9.87,15.41,11.66,29.49,14.71,52.56,12.59,5.56-7.03,7.54-19.02,8.35-30.62-31.33,8.9-35.01,9.59-63.91-2.04-.85,2.65-1.72,5.04-2.58,7.11.79-2.44,1.5-4.87,2.14-7.28h0s0,0,0,0c2.5-9.39,3.96-18.62,4.48-27.51-2.93,1.91-6.16,3.5-9.67,4.72-.19,10.81-.93,22.9-1.88,33.18ZM39.86,112.55c4.84-3.65,11.83-3.85,18.51-6.98,42.15-19.69,37.44-88.67-10.64-99.07-5.23-1.13-21.58-3.97-27.83-3.58,11.72,8.04,24.18,7.63,33.98,19.28,16.23,19.31,11.17,48.34-8.82,62.45-.8,10.84-2.86,20.41-5.19,27.9Z"/>
      <path class="cls-4" d="M6.56,21c-3,10.63-1.4,24.32,11.27,40.5C-5.63,45.25,2.67,13.17,9.91,2.32c2.63.55,18.49,10.55,27.86,30.08,13.75,36.42,6.03,71.76-.72,87.99,16.33-50.67,1.83-98.23-26.01-113.93-.21.23-2.14,6.26-4.48,14.55Z"/>
      <path class="cls-7" d="M5.32,59.92c4.99,15.12,6.16,17.65,21.45,30.55-6.7-2.23-12-6.35-15.98-11.26-2.32,20.13,7.2,27.89,13.87,33.85,5.29,4.73-3.16,31.37-4.43,39.19-.05.28.04,1,.5,1.22.25.12,1.17-.26,1.22-.37.93-2.18,4.33-6.57,6.72-23.85,2.21-16,4.15-59.73,1.16-81.11.28.81.62,6.59,3.58,21.84,2.28,20.38-1.86,68.81-4.6,76.43-1.3,4.96-2.65,8.85-10.2,11.56-.77-.26-1.23-3.01-1.35-6.34-.16-4.36,2.94-10.72,4.37-16.97,2.09-9.17,2.58-18.09.32-19.78-17.04-14.93-16.46-32.68-14.03-39.68C.56,63.34-1.04,47.97.57,37.69c0-.04,0-.07.01-.08,0,.03,0,.05-.01.08-.02,1.17,2.17,14.43,4.75,22.23Z"/>
    </g>
  </g>
  <g id="a">
    <path class="cls-1" d="M461.98,0c9.51,0,18.27,4.88,26.3,14.65,8.03,9.55,12.04,18.26,12.04,26.12s-2.64,15.5-7.92,23.57c2.53,3.18,3.8,5.94,3.8,8.28,0,5.94-1.37,16.14-4.12,30.57-2.53,14.44-4.12,23.89-4.75,28.34-.42,4.46-.84,8.07-1.27,10.83-.42,2.55-.95,5.1-1.58,7.64-.85,5.31-2.75,7.96-5.7,7.96-3.8,0-6.97-3.29-9.51-9.87-2.32-6.79-3.7-15.5-4.12-26.12-18.8,23.99-36.23,35.99-52.28,35.99-9.72,0-19.33-4.14-28.83-12.42-9.29-8.49-13.94-17.2-13.94-26.12,0-12.74,4.65-28.45,13.94-47.13,9.29-18.9,21.33-35.67,36.12-50.32,14.79-14.65,28.73-21.97,41.82-21.97ZM476.56,56.05c0-19.75-3.91-29.62-11.72-29.62-8.24,0-17.85,5.94-28.83,17.83-10.98,11.68-20.28,24.95-27.88,39.81-7.6,14.86-11.41,26.65-11.41,35.35,0,3.61,1.48,6.58,4.44,8.92,2.96,2.12,6.44,3.18,10.46,3.18,9.93,0,21.12-6.69,33.59-20.06,12.46-13.59,21.12-30.04,25.98-49.36.63-3.18,2.43-5.1,5.39-5.73v-.32Z"/>
  </g>
  <g id="far2">
    <path class="cls-4" d="M136.23,41.32c-2.56,9.05-1.2,20.7,9.62,34.47-20.02-13.83-12.94-41.13-6.75-50.38,2.24.47,15.78,8.98,23.78,25.6,11.74,31,5.15,61.08-.62,74.89,13.94-43.13,1.56-83.6-22.2-96.97-.18.19-1.83,5.33-3.82,12.38Z"/>
  </g>
  <g id="far1">
    <path class="cls-7" d="M135.18,74.48c4.25,12.88,5.24,15.03,18.26,26.01-5.7-1.9-10.21-5.41-13.6-9.59-1.97,17.14,6.13,23.75,11.8,28.82,4.5,4.02-2.69,26.71-3.77,33.38-.04.24.03.85.42,1.04.21.1,1-.22,1.04-.31.79-1.86,3.69-5.59,5.72-20.31,1.88-13.62,3.54-50.87.99-69.07.24.69.53,5.61,3.05,18.6,1.94,17.36-1.58,58.6-3.92,65.08-1.11,4.22-2.25,7.54-8.68,9.84-.66-.22-1.04-2.57-1.15-5.4-.13-3.72,2.5-9.13,3.72-14.45,1.78-7.81,2.2-15.4.27-16.84-14.51-12.71-14.01-27.83-11.95-33.79-6.26-10.08-7.62-23.18-6.24-31.93,0-.04,0-.06.01-.07,0,.02,0,.05-.01.07-.02,1,1.85,12.29,4.04,18.93Z"/>
  </g>
  <g id="dot">
    <path class="cls-3" d="M140.57,1.9c3.88,1.21,9.17,5.16,9.82,7.33,1.6,5.35-6.35,13.54-12,12.86-11.24-1.36-5.64-22.64,2.18-20.19Z"/>
  </g>
  <g id="k">
    <path class="cls-2" d="M299.5,40.92c4.63-10.88,10.83-19.63,18.59-26.25,7.76-6.69,16.01-10.03,24.75-10.03,5.15,0,9.59,1.42,13.3,4.27,3.78,2.85,5.67,7.15,5.67,12.91,0,3.34-1.04,5.94-3.13,7.79-2.02,1.85-4.43,2.77-7.24,2.77s-5.09-.85-7.04-2.56c-1.89-1.78-2.84-3.98-2.84-6.62s.88-5.41,2.64-8.32c-2.22-1.14-4.4-1.71-6.55-1.71s-4.47.92-7.14,2.77c-2.61,1.85-5.02,4.3-7.24,7.36-3.91,5.41-7.53,12.02-10.86,19.85-3.26,7.82-8.45,26.71-15.55,56.66-7.04,29.95-10.57,48.76-10.57,56.44h-15.46c0-12.16,3.13-30.55,9.39-55.16,6.33-24.61,12.75-44.67,19.27-60.18ZM348.61,137.48c-2.87,5.41-6.52,10.17-10.96,14.3-4.37,4.13-8.74,6.19-13.11,6.19s-7.57-2.03-9.78-6.08c-2.22-4.05-4.24-7.72-6.07-10.99-1.76-3.34-3.2-5.98-4.3-7.9-1.04-1.99-2.02-3.81-2.93-5.44-.91-1.64-1.6-2.85-2.05-3.63-.39-.85-.78-1.6-1.17-2.24-.39-.78-.68-1.56-.88-2.35l2.84-3.41c18.52-21.48,33.07-32.22,43.63-32.22,4.04,0,7.14,1.07,9.29,3.2,2.22,2.13,3.33,4.52,3.33,7.15s-.78,4.98-2.35,7.04c-1.5,1.99-3.62,2.99-6.36,2.99s-4.86-.71-6.36-2.13c-1.43-1.42-2.28-2.85-2.54-4.27l-.39-2.13c-9.98,5.9-18.82,12.45-26.51,19.63-1.63,1.56-2.61,2.53-2.93,2.88,1.83,1.42,8.35,9.85,19.57,25.29,1.11,1.64,2.28,2.45,3.52,2.45,1.3,0,2.84-.89,4.6-2.67,1.76-1.78,4.4-4.91,7.92-9.39l4.01,3.73Z"/>
  </g>
  <g id="p">
    <path class="cls-6" d="M257.03,30.12c0,4-.78,8.17-2.35,12.53-1.49,4.28-3.59,8.21-6.3,11.78-2.7,3.57-5.94,6.53-9.71,8.89-3.7,2.28-7.76,3.43-12.17,3.43-1.57,0-3.17-.25-4.8-.75-1.57-.57-3.02-1.36-4.38-2.36-1.28-1.07-2.35-2.32-3.2-3.75-.78-1.43-1.17-3.03-1.17-4.82,0-.86.36-1.57,1.07-2.14.71-.64,1.49-.96,2.35-.96,1.07,0,1.96.54,2.67,1.61.78,1.07,1.6,2.25,2.45,3.53.92,1.21,1.99,2.36,3.2,3.43,1.28,1.07,2.95,1.61,5.02,1.61,2.56,0,4.84-.86,6.83-2.57,1.99-1.78,3.66-3.93,5.02-6.42,1.35-2.5,2.38-5.14,3.1-7.92.71-2.86,1.07-5.35,1.07-7.49,0-2.71-.36-5.39-1.07-8.03-.71-2.64-1.81-4.96-3.31-6.96-1.42-2.07-3.27-3.71-5.55-4.93-2.21-1.28-4.8-1.93-7.79-1.93-3.49,0-6.44,1.18-8.86,3.53-2.35,2.36-4.3,5.39-5.87,9.1-1.49,3.64-2.67,7.74-3.52,12.31-.78,4.57-1.39,9.1-1.81,13.6-.36,4.43-.57,8.53-.64,12.31-.07,3.78-.11,6.78-.11,8.99,0,10.35-.28,19.66-.85,27.95-.57,8.35-1.35,15.88-2.35,22.59-1,6.71-2.17,12.63-3.52,17.77-1.35,5.21-2.81,9.85-4.38,13.92h-2.67v-51.18c0-15.63-.28-31.16-.85-46.58-.57-15.49-.85-31.09-.85-46.79,0-1.64.32-3,.96-4.07.71-1.14,1.6-2.07,2.67-2.78,1.14-.71,2.42-1.21,3.84-1.5,1.42-.29,2.88-.43,4.38-.43.43,0,1.14.11,2.13.32,1,.14,1.49.54,1.49,1.18,0,5-.04,9.92-.11,14.78-.07,4.85-.18,9.74-.32,14.67,1-3.43,2.28-6.96,3.84-10.6,1.57-3.71,3.49-7.07,5.76-10.06,2.28-3,4.98-5.46,8.11-7.39,3.13-1.93,6.79-2.89,10.99-2.89,3.56,0,6.65.71,9.28,2.14,2.7,1.43,4.94,3.32,6.72,5.67,1.85,2.36,3.24,5.07,4.16,8.14.92,3.07,1.39,6.25,1.39,9.53Z"/>
  </g>
</svg>